<svg width="615" height="167" viewBox="0 0 615 167" fill="none" xmlns="http://www.w3.org/2000/svg">
<path d="M0.510059 38V140C0.503487 143.353 1.15767 146.675 2.43522 149.776C3.71278 152.877 5.58869 155.695 7.95579 158.071C10.3229 160.446 13.1348 162.332 16.2309 163.62C19.327 164.909 22.6466 165.575 26.0001 165.58H588.66C595.431 165.58 601.925 162.89 606.713 158.102C611.5 153.315 614.19 146.821 614.19 140.05V38C614.179 31.236 611.485 24.7526 606.698 19.9734C601.912 15.1943 595.424 12.51 588.66 12.51H26.0001C19.2429 12.5206 12.7656 15.2095 7.98759 19.9875C3.20958 24.7655 0.520637 31.2429 0.510059 38V38Z" fill="#1C2541" stroke="black" stroke-width="1.02" stroke-miterlimit="10"/>
<path d="M182.77 46H191.77V89H182.77V46ZM187.27 82.32H199.53C201.615 82.4512 203.686 81.9001 205.43 80.75C206.116 80.2152 206.662 79.5217 207.021 78.7291C207.38 77.9365 207.541 77.0685 207.49 76.2V76.14C207.557 74.9568 207.225 73.7852 206.547 72.8133C205.869 71.8414 204.884 71.1253 203.75 70.78C202.265 70.2826 200.705 70.0491 199.14 70.09H187.27V64H198.07C200.117 64.1356 202.153 63.6022 203.87 62.48C204.528 61.9757 205.054 61.3191 205.403 60.5666C205.751 59.8141 205.911 58.9882 205.87 58.16V58.1C205.914 57.3416 205.778 56.5835 205.472 55.8881C205.166 55.1927 204.699 54.5799 204.11 54.1C202.677 53.0878 200.941 52.594 199.19 52.7H187.29V46H201.5C203.9 45.9446 206.285 46.3943 208.5 47.32C210.353 48.0945 211.938 49.3947 213.06 51.06C214.163 52.7675 214.724 54.7682 214.67 56.8V56.86C214.686 58.3923 214.311 59.9033 213.58 61.25C212.858 62.585 211.83 63.7297 210.58 64.59C209.313 65.4834 207.847 66.0533 206.31 66.25V66.43C208.215 66.4984 210.074 67.0378 211.72 68C213.226 68.8833 214.483 70.1361 215.37 71.64C216.27 73.1798 216.73 74.9369 216.7 76.72V76.78C216.759 79.0773 216.132 81.3402 214.9 83.28C213.63 85.1569 211.85 86.6316 209.77 87.53C207.241 88.5945 204.513 89.1059 201.77 89.03H187.27V82.32Z" fill="#FFFBF9"/>
<path d="M226 88.25C224.354 87.2906 223.041 85.849 222.24 84.12C221.341 82.1089 220.904 79.9221 220.96 77.72V57.09H229.67V75.9C229.564 77.6436 230.085 79.3677 231.14 80.76C231.699 81.3567 232.384 81.8209 233.145 82.1185C233.906 82.4161 234.725 82.5396 235.54 82.48C236.729 82.5165 237.903 82.2073 238.92 81.59C239.874 80.9818 240.639 80.1194 241.13 79.1C241.675 77.962 241.946 76.7117 241.92 75.45V57.09H250.63V89H241.92V83.77H241.71C240.937 85.5591 239.645 87.0747 238 88.12C236.17 89.2265 234.057 89.7755 231.92 89.7C229.853 89.7545 227.808 89.2538 226 88.25V88.25Z" fill="#FFFBF9"/>
<path d="M257.47 51.64C257.04 51.2241 256.699 50.7261 256.465 50.1755C256.232 49.6249 256.112 49.033 256.112 48.435C256.112 47.837 256.232 47.2451 256.465 46.6945C256.699 46.1439 257.04 45.6459 257.47 45.23C258.365 44.3818 259.552 43.909 260.785 43.909C262.018 43.909 263.205 44.3818 264.1 45.23C264.525 45.6487 264.862 46.1476 265.092 46.6978C265.323 47.2481 265.441 47.8386 265.441 48.435C265.441 49.0315 265.323 49.6219 265.092 50.1722C264.862 50.7224 264.525 51.2213 264.1 51.64C263.217 52.5115 262.026 53.0001 260.785 53.0001C259.544 53.0001 258.353 52.5115 257.47 51.64V51.64ZM256.41 57.09H265.14V89H256.41V57.09Z" fill="#FFFBF9"/>
<path d="M271.17 46H279.87V89H271.17V46Z" fill="#FFFBF9"/>
<path d="M290.63 87.7C288.607 86.2702 287.043 84.2828 286.13 81.98C285.014 79.1418 284.477 76.1089 284.55 73.06V73.06C284.474 70.0109 285.011 66.9775 286.13 64.14C287.041 61.841 288.605 59.8593 290.63 58.44C292.679 57.0834 295.093 56.3855 297.55 56.44C299.668 56.3918 301.754 56.9654 303.55 58.09C305.259 59.1968 306.607 60.7781 307.43 62.64H307.61V46H316.31V89H307.61V83.59H307.43C306.63 85.4325 305.296 86.993 303.6 88.07C301.801 89.1843 299.716 89.7507 297.6 89.7C295.126 89.768 292.692 89.0695 290.63 87.7V87.7ZM304.23 81.34C305.35 80.505 306.213 79.3719 306.72 78.07C307.336 76.4765 307.635 74.7781 307.6 73.07V73.07C307.642 71.3596 307.335 69.6586 306.7 68.07C306.193 66.7681 305.33 65.635 304.21 64.8C303.108 64.0532 301.807 63.6541 300.475 63.6541C299.144 63.6541 297.843 64.0532 296.74 64.8C295.641 65.6151 294.795 66.7245 294.3 68C293.691 69.5948 293.399 71.2933 293.44 73V73C293.403 74.7047 293.688 76.401 294.28 78C294.769 79.3007 295.619 80.435 296.73 81.27C297.84 82.0129 299.145 82.4095 300.48 82.4095C301.815 82.4095 303.121 82.0129 304.23 81.27V81.34Z" fill="#FFFBF9"/>
<path d="M323.1 67.76H342.42V75.36H323.1V67.76Z" fill="#FFFBF9"/>
<path d="M349.78 46H358.78V89H349.78V46Z" fill="#FFFBF9"/>
<path d="M370 87.46C368.293 85.9733 367.44 83.52 367.44 80.1V63.64H363V57.09H367.44V49.27H376.23V57.09H382.08V63.64H376.23V79.15C376.168 79.7096 376.226 80.2758 376.398 80.8117C376.57 81.3477 376.854 81.8412 377.23 82.26C378.087 82.9133 379.156 83.2267 380.23 83.14C380.63 83.14 380.97 83.14 381.23 83.14L382.07 83.03V89.41C381.59 89.49 381 89.56 380.29 89.64C379.58 89.72 378.78 89.74 377.86 89.74C374.34 89.7133 371.72 88.9533 370 87.46Z" fill="#FFFBF9"/>
<path d="M399.72 46H408.72V89H399.72V46ZM404.22 82.32H416.47C418.555 82.4512 420.626 81.9001 422.37 80.75C423.056 80.2152 423.602 79.5217 423.961 78.7291C424.32 77.9365 424.481 77.0686 424.43 76.2V76.14C424.497 74.9568 424.165 73.7853 423.487 72.8133C422.809 71.8414 421.824 71.1254 420.69 70.78C419.206 70.2818 417.645 70.0483 416.08 70.09H404.22V64H415C417.047 64.1371 419.083 63.6035 420.8 62.48C421.458 61.9757 421.984 61.3191 422.333 60.5666C422.681 59.8141 422.841 58.9882 422.8 58.16V58.1C422.844 57.3416 422.708 56.5835 422.402 55.8881C422.096 55.1927 421.629 54.5799 421.04 54.1C419.607 53.0878 417.871 52.594 416.12 52.7H404.22V46H418.44C420.84 45.9434 423.225 46.3932 425.44 47.32C427.295 48.0999 428.881 49.4073 430 51.08C431.103 52.7875 431.664 54.7882 431.61 56.82V56.88C431.624 58.4108 431.253 59.9205 430.53 61.27C429.804 62.6022 428.777 63.746 427.53 64.61C426.267 65.5033 424.804 66.0733 423.27 66.27V66.45C425.167 66.5156 427.018 67.048 428.66 68C430.166 68.8833 431.423 70.1361 432.31 71.64C433.21 73.1798 433.67 74.9369 433.64 76.72V76.78C433.699 79.0773 433.072 81.3402 431.84 83.28C430.575 85.1611 428.794 86.6369 426.71 87.53C424.2 88.5876 421.493 89.0989 418.77 89.03H404.22V82.32Z" fill="#FFFBF9"/>
<path d="M444.17 87.69C441.838 86.371 439.949 84.3911 438.74 82C437.41 79.2505 436.755 76.2234 436.83 73.17V73.17C436.757 70.1136 437.412 67.0838 438.74 64.33C439.93 61.9285 441.787 59.9215 444.09 58.55C446.565 57.1587 449.372 56.4673 452.21 56.55C455.04 56.4833 457.836 57.1737 460.31 58.55C462.552 59.8276 464.384 61.7182 465.59 64C466.879 66.6232 467.517 69.5181 467.45 72.44V75.15H441.12V69.64H463.33L459.19 74.79V71.42C459.237 69.8135 458.944 68.2151 458.33 66.73C457.829 65.5636 456.994 64.5719 455.93 63.88C454.843 63.2476 453.608 62.9145 452.35 62.9145C451.092 62.9145 449.857 63.2476 448.77 63.88C447.692 64.5802 446.844 65.5817 446.33 66.76C445.703 68.2207 445.402 69.801 445.45 71.39V74.79C445.407 76.3366 445.708 77.8734 446.33 79.29C446.854 80.4863 447.734 81.492 448.85 82.17C450.031 82.8623 451.382 83.2088 452.75 83.17C453.811 83.1949 454.867 83.0009 455.85 82.6C456.654 82.284 457.386 81.8077 458 81.2C458.503 80.7048 458.889 80.1035 459.13 79.44L459.19 79.27H467.19L467.1 79.59C466.834 80.843 466.361 82.0428 465.7 83.14C464.954 84.3865 464.001 85.496 462.88 86.42C461.595 87.4701 460.132 88.2797 458.56 88.81C456.624 89.4396 454.596 89.7405 452.56 89.7C449.635 89.7797 446.741 89.0864 444.17 87.69Z" fill="#FFFBF9"/>
<path d="M475.81 88.31C474.237 87.5462 472.916 86.3466 472.005 84.854C471.094 83.3613 470.63 81.6384 470.67 79.89V79.83C470.62 78.5127 470.89 77.2028 471.458 76.0131C472.026 74.8234 472.874 73.7894 473.93 73C476.11 71.34 479.177 70.38 483.13 70.12L495.59 69.35V74.77L484.44 75.52C483.083 75.5214 481.757 75.9251 480.63 76.68C480.207 76.9915 479.867 77.4008 479.637 77.8727C479.407 78.3447 479.295 78.8653 479.31 79.39V79.45C479.288 79.986 479.4 80.5189 479.636 81.0008C479.871 81.4827 480.223 81.8982 480.66 82.21C481.718 82.9279 482.983 83.2791 484.26 83.21C485.463 83.231 486.655 82.9708 487.74 82.45C488.715 81.9807 489.547 81.2591 490.15 80.36C490.744 79.4739 491.051 78.4266 491.03 77.36V67.67C491.061 67.0495 490.958 66.4297 490.726 65.8531C490.495 65.2765 490.141 64.7569 489.69 64.33C488.587 63.4451 487.19 63.0093 485.78 63.11C484.418 63.036 483.066 63.3853 481.91 64.11C481.463 64.3955 481.077 64.7671 480.775 65.2032C480.473 65.6392 480.26 66.1311 480.15 66.65L480.09 66.92H472.09V66.56C472.252 64.6603 472.945 62.8444 474.09 61.32C475.327 59.7145 476.975 58.4739 478.86 57.73C481.168 56.8119 483.637 56.3697 486.12 56.43C488.583 56.3713 491.031 56.8242 493.31 57.76C495.204 58.5382 496.839 59.8344 498.03 61.5C499.165 63.155 499.752 65.1239 499.71 67.13V89H491V84.3H490.82C490.213 85.3627 489.429 86.3132 488.5 87.11C487.551 87.907 486.463 88.5207 485.29 88.92C484.038 89.3482 482.723 89.5613 481.4 89.55C479.464 89.5879 477.548 89.1628 475.81 88.31Z" fill="#FFFBF9"/>
<path d="M505.34 57.09H514V62.66H514.18C514.539 60.8935 515.45 59.2864 516.78 58.07C518.081 56.9597 519.75 56.3749 521.46 56.43C521.918 56.4291 522.376 56.4592 522.83 56.52C523.213 56.5684 523.591 56.6486 523.96 56.76V64.45C523.521 64.2689 523.061 64.1445 522.59 64.08C521.998 63.9856 521.399 63.9387 520.8 63.94C519.528 63.9024 518.268 64.1917 517.14 64.78C516.127 65.3292 515.312 66.1827 514.81 67.22C514.236 68.452 513.959 69.8014 514 71.16V89H505.3L505.34 57.09Z" fill="#FFFBF9"/>
<path d="M182.46 109.82H185.15L191.21 127.38H191.27L197.91 109.82H200.48L207.14 127.38H207.19L213.26 109.82H216L208.46 130.25H206L199.23 113L192.46 130.26H190L182.46 109.82Z" fill="#FFFBF9"/>
<path d="M222.37 129.6C221.105 129.04 220.031 128.122 219.28 126.96C218.538 125.76 218.159 124.371 218.19 122.96V122.96C218.165 121.55 218.543 120.162 219.28 118.96C220.02 117.793 221.083 116.865 222.34 116.29C223.781 115.626 225.354 115.301 226.94 115.34C228.509 115.299 230.067 115.61 231.5 116.25C232.732 116.803 233.772 117.711 234.484 118.859C235.197 120.006 235.551 121.34 235.5 122.69V123.42H219.44V121.94H234.32L233.05 123.28V122.57C233.072 121.516 232.798 120.477 232.26 119.57C231.74 118.747 230.989 118.096 230.1 117.7C229.1 117.255 228.014 117.037 226.92 117.06C225.819 117.042 224.727 117.264 223.72 117.71C222.814 118.12 222.046 118.783 221.51 119.62C220.959 120.522 220.681 121.564 220.71 122.62V123.33C220.678 124.406 220.956 125.468 221.51 126.39C222.062 127.241 222.851 127.912 223.78 128.32C224.863 128.783 226.033 129.008 227.21 128.98C228.081 128.992 228.95 128.881 229.79 128.65C230.475 128.462 231.117 128.143 231.68 127.71C232.16 127.341 232.533 126.851 232.76 126.29L232.82 126.16H235.28V126.31C235.078 126.953 234.737 127.544 234.28 128.04C233.78 128.604 233.184 129.074 232.52 129.43C231.76 129.842 230.945 130.145 230.1 130.33C229.116 130.556 228.109 130.664 227.1 130.65C225.467 130.64 223.854 130.283 222.37 129.6V129.6Z" fill="#FFFBF9"/>
<path d="M246.58 129.61C245.472 129.07 244.553 128.209 243.94 127.14H243.89V130.25H241.38V109.82H243.89V118.61H243.94C244.556 117.547 245.48 116.696 246.59 116.17C247.871 115.542 249.284 115.23 250.71 115.26C252.209 115.224 253.694 115.55 255.04 116.21C256.245 116.799 257.258 117.718 257.96 118.86C258.676 120.069 259.04 121.455 259.01 122.86V122.86C259.053 124.26 258.707 125.645 258.01 126.86C257.312 128.009 256.298 128.932 255.09 129.52C253.731 130.199 252.229 130.542 250.71 130.52C249.28 130.559 247.861 130.247 246.58 129.61V129.61ZM253.53 128.12C254.445 127.661 255.204 126.94 255.71 126.05C256.236 125.081 256.498 123.992 256.47 122.89V122.89C256.499 121.791 256.237 120.705 255.71 119.74C255.204 118.85 254.445 118.129 253.53 117.67C252.499 117.186 251.374 116.935 250.235 116.935C249.096 116.935 247.971 117.186 246.94 117.67C246.012 118.146 245.233 118.87 244.69 119.76C244.13 120.703 243.846 121.784 243.87 122.88V122.88C243.85 123.974 244.13 125.053 244.68 126C245.223 126.893 246.001 127.62 246.93 128.1C247.944 128.608 249.066 128.862 250.2 128.84C251.352 128.872 252.494 128.625 253.53 128.12Z" fill="#FFFBF9"/>
<path d="M275.37 109.82H284.24C286.63 109.755 289.008 110.163 291.24 111.02C293.032 111.719 294.577 112.934 295.68 114.51C296.732 116.143 297.262 118.058 297.2 120V120C297.291 121.944 296.758 123.866 295.678 125.486C294.599 127.105 293.029 128.336 291.2 129C288.968 129.855 286.589 130.263 284.2 130.2H275.33L275.37 109.82ZM284.07 128.51C286.024 128.557 287.968 128.217 289.79 127.51C291.242 126.935 292.484 125.93 293.35 124.63C294.195 123.251 294.618 121.656 294.57 120.04V120.04C294.618 118.415 294.194 116.81 293.35 115.42C292.487 114.12 291.243 113.118 289.79 112.55C287.968 111.843 286.024 111.503 284.07 111.55H277.94V128.55L284.07 128.51Z" fill="#FFFBF9"/>
<path d="M306.36 129.6C305.09 129.043 304.012 128.125 303.26 126.96C302.518 125.76 302.139 124.371 302.17 122.96V122.96C302.145 121.55 302.523 120.162 303.26 118.96C304 117.793 305.063 116.865 306.32 116.29C307.769 115.676 309.326 115.36 310.9 115.36C312.474 115.36 314.031 115.676 315.48 116.29C316.706 116.841 317.747 117.733 318.48 118.86C319.196 120.022 319.56 121.366 319.53 122.73V123.46H303.42V121.98H318.3L317 123.2V122.49C317.027 121.435 316.753 120.395 316.21 119.49C315.69 118.667 314.939 118.016 314.05 117.62C313.053 117.175 311.971 116.957 310.88 116.98C309.776 116.962 308.68 117.184 307.67 117.63C306.764 118.04 305.996 118.703 305.46 119.54C304.909 120.442 304.631 121.484 304.66 122.54V123.25C304.628 124.326 304.906 125.388 305.46 126.31C306.014 127.159 306.803 127.829 307.73 128.24C308.813 128.702 309.983 128.927 311.16 128.9C312.031 128.912 312.9 128.801 313.74 128.57C314.426 128.384 315.068 128.065 315.63 127.63C316.11 127.261 316.483 126.771 316.71 126.21L316.77 126.08H319.24V126.23C319.038 126.873 318.697 127.464 318.24 127.96C317.744 128.524 317.151 128.994 316.49 129.35C315.725 129.76 314.908 130.063 314.06 130.25C313.076 130.477 312.069 130.584 311.06 130.57C309.442 130.583 307.84 130.252 306.36 129.6V129.6Z" fill="#FFFBF9"/>
<path d="M322.69 115.53H325.33L331.33 128.3H331.4L337.4 115.53H340L332.68 130.25H330L322.69 115.53Z" fill="#FFFBF9"/>
<path d="M353.27 115.53H355.79L360.22 128.17H360.28L365.19 115.53H367.71L372.62 128.17H372.69L377.11 115.53H379.63L374 130.25H371.37L366.48 118H366.42L361.53 130.23H358.88L353.27 115.53Z" fill="#FFFBF9"/>
<path d="M384.76 112.5C384.604 112.414 384.473 112.287 384.383 112.133C384.292 111.979 384.244 111.804 384.244 111.625C384.244 111.446 384.292 111.271 384.383 111.117C384.473 110.963 384.604 110.836 384.76 110.75C385.096 110.505 385.504 110.378 385.92 110.39C386.346 110.375 386.764 110.502 387.11 110.75C387.266 110.836 387.397 110.963 387.487 111.117C387.578 111.271 387.626 111.446 387.626 111.625C387.626 111.804 387.578 111.979 387.487 112.133C387.397 112.287 387.266 112.414 387.11 112.5C386.767 112.755 386.347 112.886 385.92 112.87C385.502 112.883 385.093 112.752 384.76 112.5V112.5ZM384.67 115.5H387.17V130.22H384.67V115.5Z" fill="#FFFBF9"/>
<path d="M396.26 129.62C395.847 129.282 395.522 128.849 395.313 128.358C395.104 127.867 395.017 127.332 395.06 126.8V117.1H392.16V115.53H395.06V111.53H397.64V115.53H401.52V117.1H397.64V126.77C397.605 127.088 397.65 127.41 397.77 127.707C397.891 128.004 398.083 128.266 398.33 128.47C398.957 128.832 399.678 128.999 400.4 128.95H401.02H401.52V130.47L400.79 130.55C400.49 130.55 400.19 130.55 399.89 130.55C398.612 130.635 397.34 130.31 396.26 129.62V129.62Z" fill="#FFFBF9"/>
<path d="M407.53 109.82H410V118.22H410.06C410.622 117.268 411.468 116.516 412.48 116.07C413.737 115.509 415.104 115.236 416.48 115.27C417.764 115.244 419.04 115.493 420.22 116C421.229 116.436 422.093 117.151 422.71 118.06C423.311 118.991 423.617 120.082 423.59 121.19V130.25H421.11V121.49C421.144 120.855 421.031 120.22 420.78 119.635C420.528 119.051 420.145 118.532 419.66 118.12C418.506 117.268 417.091 116.847 415.66 116.93C414.629 116.908 413.606 117.109 412.66 117.52C411.856 117.874 411.164 118.441 410.66 119.16C410.183 119.872 409.935 120.713 409.95 121.57V130.25H407.45L407.53 109.82Z" fill="#FFFBF9"/>
<path d="M442.89 130C442.005 129.695 441.213 129.168 440.59 128.47C440.051 127.838 439.759 127.031 439.77 126.2V126.2C439.766 125.579 439.935 124.97 440.259 124.44C440.582 123.91 441.046 123.481 441.6 123.2C443.221 122.369 445.018 121.937 446.84 121.94L454.23 121.59V123L447.14 123.35C445.903 123.365 444.684 123.651 443.57 124.19C443.199 124.363 442.884 124.636 442.662 124.979C442.439 125.322 442.317 125.721 442.31 126.13V126.13C442.309 126.547 442.426 126.956 442.648 127.31C442.869 127.663 443.185 127.948 443.56 128.13C444.555 128.661 445.673 128.917 446.8 128.87C447.871 128.886 448.936 128.703 449.94 128.33C450.785 128.012 451.543 127.498 452.15 126.83C452.681 126.252 452.977 125.495 452.98 124.71V120.33C452.996 119.839 452.887 119.352 452.663 118.915C452.439 118.477 452.108 118.104 451.7 117.83C450.627 117.161 449.372 116.843 448.11 116.92C446.902 116.872 445.701 117.119 444.61 117.64C444.203 117.833 443.841 118.111 443.551 118.456C443.262 118.802 443.05 119.205 442.93 119.64V119.79H440.53V119.62C440.658 118.762 441.062 117.969 441.68 117.36C442.423 116.654 443.32 116.13 444.3 115.83C445.547 115.431 446.851 115.242 448.16 115.27C449.485 115.241 450.805 115.444 452.06 115.87C453.047 116.198 453.925 116.789 454.6 117.58C455.198 118.313 455.517 119.234 455.5 120.18V130.26H453V127.56H452.94C452.553 128.188 452.03 128.721 451.41 129.12C450.691 129.567 449.909 129.904 449.09 130.12C447.057 130.666 444.91 130.607 442.91 129.95L442.89 130Z" fill="#FFFBF9"/>
<path d="M476.35 129.89C475.042 129.51 473.842 128.824 472.85 127.89C472.011 127.103 471.488 126.036 471.38 124.89V124.69H473.96V124.89C474.101 125.674 474.516 126.383 475.13 126.89C475.901 127.524 476.803 127.982 477.77 128.23C479.012 128.565 480.294 128.723 481.58 128.7C482.836 128.725 484.09 128.567 485.3 128.23C486.223 127.988 487.072 127.52 487.77 126.87C488.048 126.604 488.269 126.284 488.42 125.93C488.571 125.576 488.649 125.195 488.65 124.81C488.653 124.322 488.525 123.843 488.281 123.421C488.037 122.999 487.684 122.65 487.26 122.41C485.848 121.646 484.304 121.157 482.71 120.97L479.71 120.47C477.646 120.227 475.658 119.545 473.88 118.47C473.298 118.092 472.822 117.573 472.495 116.961C472.168 116.349 472.001 115.664 472.01 114.97V114.97C472.026 113.891 472.464 112.86 473.23 112.1C474.148 111.175 475.277 110.489 476.52 110.1C478.072 109.61 479.693 109.374 481.32 109.4C482.922 109.371 484.517 109.611 486.04 110.11C487.283 110.512 488.416 111.197 489.35 112.11C490.16 112.91 490.654 113.975 490.74 115.11V115.31H488.16V115.13C488.024 114.338 487.634 113.612 487.05 113.06C486.37 112.442 485.56 111.984 484.68 111.72C483.57 111.391 482.417 111.233 481.26 111.25C480.086 111.232 478.917 111.391 477.79 111.72C476.936 111.959 476.151 112.398 475.5 113C475.239 113.249 475.032 113.549 474.891 113.88C474.75 114.212 474.678 114.569 474.68 114.93V114.93C474.684 115.404 474.814 115.869 475.057 116.276C475.299 116.684 475.645 117.02 476.06 117.25C477.409 117.996 478.89 118.474 480.42 118.66L483.42 119.15C485.537 119.395 487.58 120.076 489.42 121.15C490.004 121.54 490.48 122.072 490.802 122.697C491.124 123.321 491.281 124.018 491.26 124.72V124.72C491.273 125.854 490.842 126.949 490.06 127.77C489.114 128.718 487.94 129.407 486.65 129.77C483.273 130.703 479.707 130.703 476.33 129.77L476.35 129.89Z" fill="#FFFBF9"/>
<path d="M497.12 115.53H499.62V118.08H499.68C500.135 117.21 500.857 116.509 501.74 116.08C502.832 115.525 504.046 115.253 505.27 115.29C506.155 115.277 507.037 115.409 507.88 115.68C508.591 115.915 509.25 116.285 509.82 116.77C510.332 117.216 510.73 117.778 510.98 118.41H511.05C511.379 117.777 511.843 117.224 512.41 116.79C513.038 116.295 513.754 115.922 514.52 115.69C516.518 115.092 518.658 115.166 520.61 115.9C521.496 116.254 522.268 116.846 522.84 117.61C523.38 118.368 523.66 119.28 523.64 120.21V130.27H521.14V120.63C521.161 120.117 521.062 119.606 520.852 119.138C520.642 118.669 520.327 118.256 519.93 117.93C518.96 117.217 517.772 116.864 516.57 116.93C515.682 116.91 514.801 117.088 513.99 117.45C513.286 117.756 512.68 118.251 512.24 118.88C511.825 119.501 511.609 120.233 511.62 120.98V130.25H509.12V120.44C509.134 119.944 509.028 119.452 508.81 119.006C508.592 118.56 508.27 118.174 507.87 117.88C506.917 117.214 505.771 116.881 504.61 116.93C503.72 116.911 502.837 117.095 502.03 117.47C501.318 117.805 500.709 118.327 500.27 118.98C499.832 119.644 499.605 120.425 499.62 121.22V130.22H497.12V115.53Z" fill="#FFFBF9"/>
<path d="M530.45 112.5C530.294 112.414 530.163 112.287 530.073 112.133C529.982 111.979 529.934 111.804 529.934 111.625C529.934 111.446 529.982 111.271 530.073 111.117C530.163 110.963 530.294 110.836 530.45 110.75C530.786 110.505 531.194 110.378 531.61 110.39C532.036 110.375 532.454 110.502 532.8 110.75C532.956 110.836 533.087 110.963 533.177 111.117C533.268 111.271 533.316 111.446 533.316 111.625C533.316 111.804 533.268 111.979 533.177 112.133C533.087 112.287 532.956 112.414 532.8 112.5C532.457 112.755 532.037 112.886 531.61 112.87C531.192 112.883 530.783 112.752 530.45 112.5V112.5ZM530.36 115.5H532.87V130.22H530.36V115.5Z" fill="#FFFBF9"/>
<path d="M539.88 109.82H542.38V130.25H539.88V109.82Z" fill="#FFFBF9"/>
<path d="M552.4 129.6C551.132 129.045 550.056 128.126 549.31 126.96C548.568 125.76 548.189 124.371 548.22 122.96V122.96C548.195 121.55 548.573 120.162 549.31 118.96C550.05 117.793 551.113 116.865 552.37 116.29C553.811 115.626 555.384 115.301 556.97 115.34C558.539 115.299 560.097 115.61 561.53 116.25C562.762 116.803 563.802 117.711 564.514 118.859C565.227 120.006 565.581 121.34 565.53 122.69V123.42H549.47V121.94H564.35L563.08 123.28V122.57C563.102 121.516 562.828 120.477 562.29 119.57C561.77 118.747 561.019 118.096 560.13 117.7C559.13 117.255 558.044 117.037 556.95 117.06C555.849 117.042 554.757 117.264 553.75 117.71C552.842 118.117 552.074 118.781 551.54 119.62C550.989 120.522 550.711 121.564 550.74 122.62V123.33C550.708 124.406 550.986 125.468 551.54 126.39C552.092 127.241 552.881 127.912 553.81 128.32C554.893 128.783 556.063 129.008 557.24 128.98C558.111 128.992 558.98 128.881 559.82 128.65C560.505 128.462 561.147 128.143 561.71 127.71C562.19 127.341 562.563 126.851 562.79 126.29L562.85 126.16H565.31V126.31C565.108 126.953 564.767 127.544 564.31 128.04C563.81 128.604 563.214 129.074 562.55 129.43C561.79 129.842 560.975 130.145 560.13 130.33C559.146 130.556 558.139 130.664 557.13 130.65C555.497 130.64 553.884 130.283 552.4 129.6V129.6Z" fill="#FFFBF9"/>
<path d="M572.86 130C572.702 129.899 572.572 129.76 572.481 129.596C572.39 129.432 572.342 129.248 572.34 129.06C572.341 128.872 572.389 128.688 572.48 128.524C572.571 128.359 572.701 128.221 572.86 128.12C573.224 127.861 573.664 127.73 574.11 127.75C574.559 127.733 575.001 127.863 575.37 128.12C575.523 128.225 575.648 128.365 575.735 128.529C575.822 128.692 575.869 128.875 575.87 129.06C575.868 129.245 575.821 129.427 575.734 129.591C575.647 129.754 575.522 129.895 575.37 130C575.003 130.26 574.56 130.394 574.11 130.38C573.663 130.397 573.222 130.263 572.86 130V130ZM572.86 109.82H575.45L575.28 123.82H573L572.86 109.82Z" fill="#FFFBF9"/>
<path d="M84.0957 109.891C90.8049 103.182 90.6878 92.1866 83.8341 85.3329C76.9804 78.4792 65.9855 78.3621 59.2763 85.0713C52.5671 91.7805 52.6842 102.775 59.5379 109.629C66.3916 116.483 77.3865 116.6 84.0957 109.891Z" fill="#EE6C4D" stroke="#1C2541" stroke-width="1.74" stroke-miterlimit="10"/>
<path d="M41.0499 104.64C47.0499 110.64 48.9399 118.46 45.2899 122.11C41.6399 125.76 33.8099 123.87 27.8199 117.87C21.8299 111.87 19.9299 104.06 23.5799 100.4C27.2299 96.74 35.0499 98.65 41.0499 104.64Z" fill="#EE6C4D" stroke="#1C2541" stroke-width="1.74" stroke-miterlimit="10"/>
<path d="M40.42 71.15C46.42 77.15 48.31 84.96 44.66 88.61C41.01 92.26 33.18 90.37 27.19 84.38C21.2 78.39 19.3 70.56 23 66.9C26.7 63.24 34.42 65.15 40.42 71.15Z" fill="#EE6C4D" stroke="#1C2541" stroke-width="1.74" stroke-miterlimit="10"/>
<path d="M58.58 53C64.58 59 66.47 66.82 62.82 70.47C59.17 74.12 51.35 72.23 45.35 66.23C39.35 60.23 37.46 52.41 41.11 48.77C44.76 45.13 52.59 47 58.58 53Z" fill="#EE6C4D" stroke="#1C2541" stroke-width="1.74" stroke-miterlimit="10"/>
<path d="M89.51 54.83C95.51 60.83 97.41 68.66 93.76 72.31C90.11 75.96 82.28 74.06 76.28 68.06C70.28 62.06 68.39 54.25 72.05 50.59C75.71 46.93 83.52 48.84 89.51 54.83Z" fill="#EE6C4D" stroke="#1C2541" stroke-width="1.74" stroke-miterlimit="10"/>
<path d="M112.25 60.34L129.31 77.41L57.68 149C55.3868 151.063 52.3902 152.169 49.3065 152.09C46.2229 152.011 43.2867 150.754 41.1017 148.577C38.9166 146.399 37.649 143.468 37.5594 140.384C37.4698 137.301 38.5651 134.301 40.62 132L112.25 60.34Z" fill="#FFF5EE" stroke="#1C2541" stroke-width="2.22" stroke-miterlimit="10"/>
<path d="M134.93 54.69C135.354 55.1077 135.738 55.5629 136.08 56.05C136.08 56.05 136.08 56.11 136.08 56.13L133.48 53.52L133.56 53.58C134.041 53.9184 134.499 54.2892 134.93 54.69Z" stroke="#1C2541" stroke-width="2.22" stroke-miterlimit="10"/>
<path d="M168.17 70.18C169.516 71.5362 170.271 73.3693 170.271 75.28C170.271 77.1907 169.516 79.0238 168.17 80.38L147.34 101.19C146.671 101.861 145.876 102.394 145.001 102.757C144.126 103.121 143.188 103.308 142.24 103.308C141.292 103.308 140.354 103.121 139.479 102.757C138.604 102.394 137.809 101.861 137.14 101.19L133.4 97.45C132.057 96.0926 131.303 94.2599 131.303 92.35C131.303 90.4401 132.057 88.6074 133.4 87.25L136.3 84.39L150.3 70.39L154.17 66.52C155.527 65.168 157.365 64.4089 159.28 64.4089C161.196 64.4089 163.033 65.168 164.39 66.52L168.17 70.18Z" fill="#7FD7DA" stroke="#1C2541" stroke-width="2.22" stroke-miterlimit="10"/>
<path d="M133.53 53.52L136.13 56.13C136.13 56.13 136.13 56.07 136.13 56.05L150.37 70.29L136.37 84.29L102.37 50.29L100.53 47.57L88.1 29.54C87.9323 29.1888 87.8785 28.794 87.9459 28.4107C88.0133 28.0274 88.1986 27.6747 88.4759 27.4017C88.7533 27.1287 89.109 26.9491 89.4933 26.8878C89.8776 26.8266 90.2715 26.8868 90.62 27.06L109 33.57L116.08 36.08C116.19 36.13 116.25 36.23 116.37 36.31L133.64 53.58L133.53 53.52Z" fill="#7FD7DA" stroke="#1C2541" stroke-width="2.62" stroke-miterlimit="10"/>
<path d="M136.13 56.13L133.54 53.53H133.61L136.08 56C136.102 56.0411 136.119 56.0848 136.13 56.13V56.13Z" fill="#1C2541" stroke="#1C2541" stroke-width="2.62" stroke-miterlimit="10"/>
<path d="M142.91 83.99L141.97 92.73L150.43 91.83" stroke="#1C2541" stroke-width="1.94" stroke-miterlimit="10" stroke-linecap="round"/>
<path d="M150.97 75.93L159.71 74.99L158.81 83.45" stroke="#1C2541" stroke-width="1.94" stroke-miterlimit="10" stroke-linecap="round"/>
<path d="M149.15 78.02L152.52 89.46" stroke="#1C2541" stroke-width="1.94" stroke-miterlimit="10" stroke-linecap="round"/>
</svg>
