<svg width="200" height="200" viewBox="0 0 200 200" fill="none" xmlns="http://www.w3.org/2000/svg">
<path d="M100.17 199.34C154.94 199.34 199.34 154.94 199.34 100.17C199.34 45.3999 154.94 1 100.17 1C45.3999 1 1 45.3999 1 100.17C1 154.94 45.3999 199.34 100.17 199.34Z" fill="#1C2541" stroke="black" stroke-width="1.27" stroke-miterlimit="10"/>
<path d="M87.6896 121.914C94.9143 114.69 94.7909 102.853 87.4139 95.4757C80.0369 88.0987 68.1999 87.9753 60.9752 95.2C53.7505 102.425 53.8739 114.262 61.2509 121.639C68.6279 129.016 80.4649 129.139 87.6896 121.914Z" fill="#EE6C4D" stroke="#1C2541" stroke-width="1.88" stroke-miterlimit="10"/>
<path d="M41.3699 116.26C47.8199 122.71 49.8599 131.13 45.9399 135.06C42.0199 138.99 33.5799 136.96 27.1199 130.5C20.6599 124.04 18.6299 115.63 22.5599 111.69C26.4899 107.75 34.8899 109.8 41.3699 116.26Z" fill="#EE6C4D" stroke="#1C2541" stroke-width="1.88" stroke-miterlimit="10"/>
<path d="M40.67 80.2C47.13 86.65 49.17 95.07 45.24 99C41.31 102.93 32.88 100.9 26.43 94.44C19.98 87.98 17.93 79.56 21.87 75.63C25.81 71.7 34.21 73.74 40.67 80.2Z" fill="#EE6C4D" stroke="#1C2541" stroke-width="1.88" stroke-miterlimit="10"/>
<path d="M60.2301 60.64C66.6801 67.09 68.7201 75.51 64.7901 79.45C60.8601 83.39 52.4401 81.37 45.9801 74.88C39.5201 68.39 37.4901 60.01 41.4201 56.08C45.3501 52.15 53.7701 54.18 60.2301 60.64Z" fill="#EE6C4D" stroke="#1C2541" stroke-width="1.88" stroke-miterlimit="10"/>
<path d="M93.53 62.63C99.98 69.09 102.03 77.52 98.1 81.44C94.17 85.36 85.74 83.37 79.28 76.88C72.82 70.39 70.79 62 74.72 58.06C78.65 54.12 87.08 56.18 93.53 62.63Z" fill="#EE6C4D" stroke="#1C2541" stroke-width="1.88" stroke-miterlimit="10"/>
<path d="M118 68.57L136.37 86.94L59.26 164.06C56.798 166.368 53.5352 167.628 50.1612 167.574C46.7872 167.519 43.5665 166.156 41.1797 163.77C38.793 161.385 37.4274 158.165 37.3714 154.791C37.3155 151.417 38.5736 148.153 40.88 145.69L118 68.57Z" fill="#FFF5EE" stroke="#1C2541" stroke-width="2.39" stroke-miterlimit="10"/>
<path d="M142.42 62.48C142.879 62.9259 143.294 63.4148 143.66 63.94L143.72 64.02L140.92 61.22L141 61.28C141.502 61.6447 141.977 62.0458 142.42 62.48V62.48Z" stroke="#1C2541" stroke-width="2.39" stroke-miterlimit="10"/>
<path d="M178.21 79.15C179.666 80.6102 180.483 82.5881 180.483 84.65C180.483 86.7119 179.666 88.6898 178.21 90.15L155.78 112.56C155.06 113.286 154.203 113.862 153.259 114.255C152.315 114.648 151.303 114.85 150.28 114.85C149.258 114.85 148.245 114.648 147.301 114.255C146.357 113.862 145.5 113.286 144.78 112.56L140.78 108.56C139.327 107.098 138.511 105.121 138.511 103.06C138.511 100.999 139.327 99.0215 140.78 97.56L143.9 94.48L159 79.37L163.17 75.2C164.629 73.7418 166.607 72.9226 168.67 72.9226C170.733 72.9226 172.711 73.7418 174.17 75.2L178.21 79.15Z" fill="#7FD7DA" stroke="#1C2541" stroke-width="2.39" stroke-miterlimit="10"/>
<path d="M140.92 61.22L143.72 64.02L143.66 63.94L159 79.28L143.88 94.44L107.24 57.8L105.24 54.88L92.01 35.37C91.821 34.9923 91.7564 34.5644 91.8256 34.1477C91.8947 33.731 92.094 33.3469 92.3949 33.0504C92.6958 32.754 93.0828 32.5604 93.5005 32.4975C93.9182 32.4345 94.3451 32.5054 94.72 32.7L114.47 39.7L122.09 42.4C122.22 42.46 122.28 42.56 122.41 42.65L141 61.24L140.92 61.22Z" fill="#7FD7DA" stroke="#1C2541" stroke-width="2.82" stroke-miterlimit="10"/>
<path d="M143.72 64.02L140.92 61.23C140.952 61.2465 140.982 61.2666 141.01 61.29L143.66 63.94L143.72 64.02Z" fill="#1C2541" stroke="#1C2541" stroke-width="2.82" stroke-miterlimit="10"/>
<path d="M151.02 94.02L150 103.44L159.11 102.46" stroke="#1C2541" stroke-width="2.08" stroke-miterlimit="10" stroke-linecap="round"/>
<path d="M159.69 85.34L169.11 84.33L168.13 93.44" stroke="#1C2541" stroke-width="2.08" stroke-miterlimit="10" stroke-linecap="round"/>
<path d="M157.74 87.59L161.36 99.91" stroke="#1C2541" stroke-width="2.08" stroke-miterlimit="10" stroke-linecap="round"/>
</svg>
