<svg width="30" height="30" viewBox="0 0 30 30" fill="none" xmlns="http://www.w3.org/2000/svg">
<path fill-rule="evenodd" clip-rule="evenodd" d="M15 0.73584L15.7895 1.2246L28.9145 9.3496L29.625 9.78941V10.625V26.875V28.375H28.125H1.875H0.375V26.875V10.625V9.78941L1.08547 9.3496L14.2105 1.2246L15 0.73584ZM3.375 13.668L9.49543 18.3676L3.375 23.6137V13.668ZM5.92989 25.375H24.0701L17.1488 19.4425L15 17.6006L12.8512 19.4425L5.92989 25.375ZM26.625 23.6137L20.5046 18.3676L26.625 13.668V23.6137ZM25.4894 10.7576L15 4.26415L4.51062 10.7576L11.823 16.3725L14.0238 14.4861L15 13.6494L15.9762 14.4861L18.177 16.3725L25.4894 10.7576Z" fill="#5C5C5C"/>
</svg>
