<svg width="30" height="30" viewBox="0 0 30 30" fill="none" xmlns="http://www.w3.org/2000/svg">
<circle cx="15" cy="15" r="15" fill="#181717"/>
<path d="M2.11034 22.6763C3.93631 25.7354 6.82068 28.0895 10.2581 29.2339C11.0086 29.3711 11.2821 28.9079 11.2821 28.5101C11.2821 28.3454 11.2793 28.0544 11.2756 27.665C11.2714 27.214 11.2658 26.6309 11.2619 25.9594C7.08954 26.8655 6.20922 23.9483 6.20922 23.9483C5.52688 22.2162 4.54342 21.7548 4.54342 21.7548C3.1815 20.8238 4.64656 20.8423 4.64656 20.8423C6.15213 20.9491 6.94405 22.3884 6.94405 22.3884C8.28203 24.6803 10.4552 24.0182 11.3097 23.6352C11.446 22.6655 11.8328 22.0044 12.2619 21.6296C8.93122 21.2511 5.42927 19.9638 5.42927 14.2159C5.42927 12.5787 6.014 11.2398 6.97351 10.1909C6.81881 9.81154 6.30406 8.28663 7.11993 6.22119C7.11993 6.22119 8.37963 5.81786 11.2453 7.75899C12.4415 7.42657 13.7251 7.2599 15.0005 7.25437C16.274 7.2599 17.5576 7.42657 18.7556 7.75899C21.6194 5.81786 22.8764 6.22119 22.8764 6.22119C23.695 8.28663 23.1803 9.81154 23.0256 10.1909C23.9869 11.2398 24.568 12.5787 24.568 14.2159C24.568 19.9785 21.0605 21.2465 17.7188 21.6176C18.2575 22.0808 18.7372 22.9961 18.7372 24.3958C18.7372 25.7365 18.729 26.9041 18.7235 27.6777C18.7208 28.0608 18.7188 28.3472 18.7188 28.5101C18.7188 28.9116 18.9886 29.3784 19.7501 29.232C22.4885 28.318 24.8755 26.6366 26.6554 24.4428C23.9053 27.8331 19.7057 30 15 30C9.52098 30 4.72806 27.0624 2.11034 22.6763Z" fill="white"/>
</svg>
