<svg width="30" height="30" viewBox="0 0 30 30" fill="none" xmlns="http://www.w3.org/2000/svg">
<circle cx="15" cy="15" r="15" fill="#BD081C"/>
<path fill-rule="evenodd" clip-rule="evenodd" d="M15.6392 6C10.7268 6 8.25 9.52193 8.25 12.4588C8.25 14.237 8.92334 15.8193 10.3673 16.4083C10.6041 16.505 10.8162 16.4117 10.8848 16.1495C10.9327 15.9678 11.0457 15.5099 11.0958 15.3193C11.165 15.0599 11.138 14.9694 10.9467 14.7432C10.5305 14.2522 10.2644 13.6165 10.2644 12.7159C10.2644 10.1025 12.2197 7.7635 15.3552 7.7635C18.1318 7.7635 19.6573 9.46061 19.6573 11.7259C19.6573 14.7072 18.3377 17.2234 16.3795 17.2234C15.2978 17.2234 14.4883 16.3284 14.7477 15.2315C15.0582 13.922 15.6606 12.5078 15.6606 11.5628C15.6606 10.7167 15.2061 10.0108 14.2661 10.0108C13.1602 10.0108 12.272 11.1544 12.272 12.6867C12.272 13.6626 12.6016 14.323 12.6016 14.323C12.6016 14.323 11.4699 19.1174 11.2719 19.9572C10.877 21.6296 11.2128 23.6794 11.2409 23.8864C11.2578 24.0091 11.4153 24.0383 11.4867 23.9449C11.5886 23.8122 12.9054 22.1859 13.3532 20.5614C13.4797 20.1018 14.0805 17.7195 14.0805 17.7195C14.4394 18.4047 15.4896 19.0083 16.6062 19.0083C19.9302 19.0083 22.1847 15.978 22.1847 11.9216C22.1847 8.85592 19.5876 6 15.6392 6Z" fill="white"/>
</svg>
