<svg id="layer" xmlns="http://www.w3.org/2000/svg" viewBox="0 0 600 132.76"><defs><style>.cls-1{fill:#002852;}</style></defs><path class="cls-1" d="M491.3,307.2a15.4,15.4,0,0,1,0-30.8,14.43,14.43,0,0,1,6.5,1.5,12,12,0,0,0-3.3-.6,10.9,10.9,0,1,0,10.9,10.9,11.62,11.62,0,0,0-.8-4.2,15.67,15.67,0,0,1,2.1,7.8,15.41,15.41,0,0,1-15.4,15.4m89.8-19a17.85,17.85,0,0,0-.2-2.3,14.48,14.48,0,0,1,1.2,5.9,15.4,15.4,0,1,1-15.4-15.4,16.16,16.16,0,0,1,5.8,1.1,15,15,0,0,0-2.2-.2,10.9,10.9,0,1,0,10.8,10.9m22.7-26.3-9.6,8h0a34.48,34.48,0,0,1-50.3,47V302.7a25.38,25.38,0,1,0,33.2-34.1c.1-.1.2-.1.3-.2a62.44,62.44,0,0,0,8.3-4.7L626,230.6c-9.5-2.8-22.4-3.8-34-2.2a126.67,126.67,0,0,0-28.2,7.7c-12.3-5.2-19.8-6.8-34.9-6.9-15.1.1-22.6,1.7-34.9,6.9a128.72,128.72,0,0,0-28.2-7.7,86.34,86.34,0,0,0-34,2.2l40.3,33.1a72.07,72.07,0,0,0,8.3,4.7l.6.3A25.39,25.39,0,1,0,513.8,304V279.3a7.6,7.6,0,0,1,15.2,0v.1h0v58.9l-14.7-14.4-2.9-2.9c-4.8,4.6-10.4,5.5-19.1,5.5A34.5,34.5,0,0,1,457.8,292c0-9.3,1.8-15.3,6.8-20.9l-9.6-8c-6.7,7.8-9.7,16.8-9.7,28.9a47.07,47.07,0,0,0,47,47,58.7,58.7,0,0,0,12.4-1c6.3,5.7,25.1,22.4,25.1,22.4l25.7-23.1a45.49,45.49,0,0,0,12.2,1.7,47.07,47.07,0,0,0,47-47,48.67,48.67,0,0,0-10.9-30.1h0" transform="translate(-26 -227.64)"/><path class="cls-1" d="M37.3,250.7a5.66,5.66,0,0,0-5.1-4H26V229.3H80v17.4H68.5l13.9,61.6h.3l19.4-79H125l19.3,79h.3l12.1-49.8c2-8,.8-11.8-6-11.8H146V229.3h47.8v17.4H189a7.24,7.24,0,0,0-6.3,5l-24.2,93.8H126l-16.3-66.4h-.3L93.1,345.5H60.7Z" transform="translate(-26 -227.64)"/><path class="cls-1" d="M188.5,288c0-38.7,21.9-60.2,57.8-60.2a106.58,106.58,0,0,1,18.9,1.5h22.2v38.2H266.8l-3.2-16.9a41.51,41.51,0,0,0-14.1-2.2c-16.1,0-27.6,10.8-27.6,38.3,0,26.4,7.8,40.5,24.6,40.5,5.8,0,9-.5,12.3-1.5V305.3h-10V288.4h48.5v17.1H294c-2.3,0-4.6,3-4.6,5v35H273.3s-1.5-3.5-4.6-3.5c-6,3-13.9,5-24.1,5-36.4,0-56.1-20.8-56.1-59" transform="translate(-26 -227.64)"/><path class="cls-1" d="M307.6,302V251.6c0-2-2.3-4.8-4.6-4.8h-5.5V229.4h54.3v17.4H339.4v57.1c0,17.6,7.1,23.1,20.2,23.1,13.3,0,20.4-5.5,20.4-23.1V246.8H367.7V229.4h45.8v17.4h-5.3c-2.2,0-4.6,2.8-4.6,4.8V302c0,29.4-15.1,44.8-47.5,44.8-31.9,0-48.5-15.4-48.5-44.8" transform="translate(-26 -227.64)"/><path class="cls-1" d="M602.8,340.2a6.5,6.5,0,1,1,6.5,6.6,6.51,6.51,0,0,1-6.5-6.6m1.4,0a5.1,5.1,0,1,0,5.1-5.1,5,5,0,0,0-5.1,5.1m8.1,3.4h-1.6l-1.6-2.7H608v2.7h-1.4v-6.8h3.3c1.6,0,2.6.3,2.6,2.1a1.77,1.77,0,0,1-1.9,2Zm-2.4-4c.8,0,1.2-.2,1.2-.9s-.9-.7-1.6-.7H608v1.7h1.9Z" transform="translate(-26 -227.64)"/></svg>