<svg width="615" height="167" fill="none" xmlns="http://www.w3.org/2000/svg"><path d="M.51 38v102a25.533 25.533 0 0 0 15.72 23.62 25.516 25.516 0 0 0 9.77 1.96h562.66a25.531 25.531 0 0 0 25.53-25.53V38a25.53 25.53 0 0 0-25.53-25.49H26A25.53 25.53 0 0 0 .51 38z" fill="#1C2541" stroke="#000" stroke-width="1.02" stroke-miterlimit="10"/><path d="M182.77 46h9v43h-9V46zm4.5 36.32h12.26a9.62 9.62 0 0 0 5.9-1.57 5.374 5.374 0 0 0 2.06-4.55v-.06a5.292 5.292 0 0 0-3.74-5.36 13.41 13.41 0 0 0-4.61-.69h-11.87V64h10.8a9.46 9.46 0 0 0 5.8-1.52 5.13 5.13 0 0 0 1.533-1.913 5.13 5.13 0 0 0 .467-2.407v-.06a4.801 4.801 0 0 0-1.76-4 7.72 7.72 0 0 0-4.92-1.4h-11.9V46h14.21c2.4-.055 4.785.394 7 1.32a10.277 10.277 0 0 1 4.56 3.74 10.084 10.084 0 0 1 1.61 5.74v.06a9.005 9.005 0 0 1-1.09 4.39 9.596 9.596 0 0 1-3 3.34 9.503 9.503 0 0 1-4.27 1.66v.18c1.905.068 3.764.608 5.41 1.57a10.27 10.27 0 0 1 3.65 3.64 9.742 9.742 0 0 1 1.33 5.08v.06a11.57 11.57 0 0 1-1.8 6.5 11.884 11.884 0 0 1-5.13 4.25 19.25 19.25 0 0 1-8 1.5h-14.5v-6.71zM226 88.25a9.312 9.312 0 0 1-3.76-4.13 14.762 14.762 0 0 1-1.28-6.4V57.09h8.71V75.9a7.312 7.312 0 0 0 1.47 4.86 5.485 5.485 0 0 0 4.4 1.72 6.15 6.15 0 0 0 3.38-.89 6.083 6.083 0 0 0 2.21-2.49 8.067 8.067 0 0 0 .79-3.65V57.09h8.71V89h-8.71v-5.23h-.21a9.721 9.721 0 0 1-3.71 4.35 11 11 0 0 1-6.08 1.58 11.57 11.57 0 0 1-5.92-1.45zM257.47 51.64a4.466 4.466 0 0 1-1.358-3.205 4.466 4.466 0 0 1 1.358-3.205 4.82 4.82 0 0 1 6.63 0 4.492 4.492 0 0 1 1.341 3.205 4.487 4.487 0 0 1-1.341 3.205 4.72 4.72 0 0 1-6.63 0zm-1.06 5.45h8.73V89h-8.73V57.09zM271.17 46h8.7v43h-8.7V46zM290.63 87.7a12.768 12.768 0 0 1-4.5-5.72 22.88 22.88 0 0 1-1.58-8.92 22.768 22.768 0 0 1 1.58-8.92 12.651 12.651 0 0 1 4.5-5.7 12.05 12.05 0 0 1 6.92-2 10.841 10.841 0 0 1 6 1.65 10.457 10.457 0 0 1 3.88 4.55h.18V46h8.7v43h-8.7v-5.41h-.18a10.047 10.047 0 0 1-3.83 4.48 10.899 10.899 0 0 1-6 1.63 12.001 12.001 0 0 1-6.97-2zm13.6-6.36a7.452 7.452 0 0 0 2.49-3.27c.616-1.593.915-3.292.88-5a12.636 12.636 0 0 0-.9-5 7.452 7.452 0 0 0-2.49-3.27 6.657 6.657 0 0 0-7.47 0 7.25 7.25 0 0 0-2.44 3.2 13.132 13.132 0 0 0-.86 5 13.554 13.554 0 0 0 .84 5 7.308 7.308 0 0 0 2.45 3.27 6.742 6.742 0 0 0 7.5 0v.07zM323.1 67.76h19.32v7.6H323.1v-7.6zM349.78 46h9v43h-9V46zM370 87.46c-1.707-1.487-2.56-3.94-2.56-7.36V63.64H363v-6.55h4.44v-7.82h8.79v7.82h5.85v6.55h-5.85v15.51a3.997 3.997 0 0 0 1 3.11 4.37 4.37 0 0 0 3 .88h1l.84-.11v6.38c-.48.08-1.07.15-1.78.23-.71.08-1.51.1-2.43.1-3.52-.027-6.14-.787-7.86-2.28zM399.72 46h9v43h-9V46zm4.5 36.32h12.25a9.62 9.62 0 0 0 5.9-1.57 5.374 5.374 0 0 0 2.06-4.55v-.06a5.292 5.292 0 0 0-3.74-5.36 13.369 13.369 0 0 0-4.61-.69h-11.86V64H415a9.44 9.44 0 0 0 5.8-1.52 5.13 5.13 0 0 0 1.533-1.913 5.13 5.13 0 0 0 .467-2.407v-.06a4.801 4.801 0 0 0-1.76-4 7.72 7.72 0 0 0-4.92-1.4h-11.9V46h14.22a17.09 17.09 0 0 1 7 1.32 10.28 10.28 0 0 1 4.56 3.76 10.084 10.084 0 0 1 1.61 5.74v.06a9.119 9.119 0 0 1-1.08 4.39 9.723 9.723 0 0 1-3 3.34 9.462 9.462 0 0 1-4.26 1.66v.18a11.54 11.54 0 0 1 5.39 1.55 10.27 10.27 0 0 1 3.65 3.64 9.742 9.742 0 0 1 1.33 5.08v.06a11.57 11.57 0 0 1-1.8 6.5 11.768 11.768 0 0 1-5.13 4.25 19.2 19.2 0 0 1-7.94 1.5h-14.55v-6.71zM444.17 87.69a13.572 13.572 0 0 1-5.43-5.69 19.195 19.195 0 0 1-1.91-8.83 19.29 19.29 0 0 1 1.91-8.84 13.92 13.92 0 0 1 5.35-5.78 15.64 15.64 0 0 1 8.12-2 15.89 15.89 0 0 1 8.1 2 13.573 13.573 0 0 1 5.28 5.45 18.192 18.192 0 0 1 1.86 8.44v2.71h-26.33v-5.51h22.21l-4.14 5.15v-3.37a11.403 11.403 0 0 0-.86-4.69 6.423 6.423 0 0 0-2.4-2.85 7.118 7.118 0 0 0-7.16 0 6.562 6.562 0 0 0-2.44 2.88 10.904 10.904 0 0 0-.88 4.63v3.4a10.47 10.47 0 0 0 .88 4.5 6.352 6.352 0 0 0 2.52 2.88 7.302 7.302 0 0 0 3.9 1 7.731 7.731 0 0 0 3.1-.57 6.368 6.368 0 0 0 2.15-1.4 4.741 4.741 0 0 0 1.13-1.76l.06-.17h8l-.09.32a11.512 11.512 0 0 1-1.4 3.55 12.703 12.703 0 0 1-2.82 3.28 13.795 13.795 0 0 1-4.32 2.39c-1.936.63-3.964.93-6 .89a16.63 16.63 0 0 1-8.39-2.01zM475.81 88.31a9.13 9.13 0 0 1-5.14-8.42v-.06a8.142 8.142 0 0 1 3.26-6.83c2.18-1.66 5.247-2.62 9.2-2.88l12.46-.77v5.42l-11.15.75a6.859 6.859 0 0 0-3.81 1.16 3.246 3.246 0 0 0-1.32 2.71v.06a3.225 3.225 0 0 0 1.35 2.76 5.85 5.85 0 0 0 3.6 1 7.731 7.731 0 0 0 3.48-.76 6.074 6.074 0 0 0 2.41-2.09 5.204 5.204 0 0 0 .88-3v-9.69a4.292 4.292 0 0 0-1.34-3.34 5.61 5.61 0 0 0-3.91-1.22 6.611 6.611 0 0 0-3.87 1 3.999 3.999 0 0 0-1.76 2.54l-.06.27h-8v-.36c.162-1.9.855-3.716 2-5.24a11.222 11.222 0 0 1 4.77-3.59 18.43 18.43 0 0 1 7.26-1.3 17.81 17.81 0 0 1 7.19 1.33 10.89 10.89 0 0 1 4.72 3.74 9.598 9.598 0 0 1 1.68 5.63V89H491v-4.7h-.18a10.677 10.677 0 0 1-2.32 2.81 10.003 10.003 0 0 1-3.21 1.81 11.71 11.71 0 0 1-3.89.63 12.148 12.148 0 0 1-5.59-1.24zM505.34 57.09H514v5.57h.18a8.521 8.521 0 0 1 2.6-4.59 6.869 6.869 0 0 1 4.68-1.64c.458 0 .916.03 1.37.09.383.048.761.129 1.13.24v7.69a5.574 5.574 0 0 0-1.37-.37 11.217 11.217 0 0 0-1.79-.14 7.44 7.44 0 0 0-3.66.84 5.502 5.502 0 0 0-2.33 2.44 8.707 8.707 0 0 0-.81 3.94V89h-8.7l.04-31.91zM182.46 109.82h2.69l6.06 17.56h.06l6.64-17.56h2.57l6.66 17.56h.05l6.07-17.56H216l-7.54 20.43H206L199.23 113l-6.77 17.26H190l-7.54-20.44zM222.37 129.6a7.104 7.104 0 0 1-3.09-2.64 7.3 7.3 0 0 1-1.09-4 7.402 7.402 0 0 1 1.09-4 7.142 7.142 0 0 1 3.06-2.67 10.38 10.38 0 0 1 4.6-.95c1.569-.041 3.127.27 4.56.91a6.776 6.776 0 0 1 4 6.44v.73h-16.06v-1.48h14.88l-1.27 1.34v-.71a5.65 5.65 0 0 0-.79-3 4.927 4.927 0 0 0-2.16-1.87 7.437 7.437 0 0 0-3.18-.64 7.596 7.596 0 0 0-3.2.65 5.14 5.14 0 0 0-2.21 1.91 5.467 5.467 0 0 0-.8 3v.71a5.617 5.617 0 0 0 .8 3.06 5.196 5.196 0 0 0 2.27 1.93 8.229 8.229 0 0 0 3.43.66 9.252 9.252 0 0 0 2.58-.33 5.478 5.478 0 0 0 1.89-.94 3.4 3.4 0 0 0 1.08-1.42l.06-.13h2.46v.15a4.577 4.577 0 0 1-1 1.73 6.38 6.38 0 0 1-1.76 1.39 9.213 9.213 0 0 1-2.42.9 12.62 12.62 0 0 1-3 .32 11.482 11.482 0 0 1-4.73-1.05zM246.58 129.61a6.15 6.15 0 0 1-2.64-2.47h-.05v3.11h-2.51v-20.43h2.51v8.79h.05a6.065 6.065 0 0 1 2.65-2.44 8.934 8.934 0 0 1 4.12-.91 9.326 9.326 0 0 1 4.33.95 7.074 7.074 0 0 1 2.92 2.65 7.536 7.536 0 0 1 1.05 4 7.572 7.572 0 0 1-1 4 7.002 7.002 0 0 1-2.92 2.66 9.492 9.492 0 0 1-4.38 1 8.742 8.742 0 0 1-4.13-.91zm6.95-1.49a5.181 5.181 0 0 0 2.18-2.07 6.287 6.287 0 0 0 .76-3.16 6.227 6.227 0 0 0-.76-3.15 5.181 5.181 0 0 0-2.18-2.07 7.754 7.754 0 0 0-6.59 0 5.666 5.666 0 0 0-2.25 2.09 5.86 5.86 0 0 0-.82 3.12 5.994 5.994 0 0 0 .81 3.12 5.692 5.692 0 0 0 2.25 2.1 6.997 6.997 0 0 0 3.27.74 7.146 7.146 0 0 0 3.33-.72zM275.37 109.82h8.87a18.15 18.15 0 0 1 7 1.2 9.741 9.741 0 0 1 4.44 3.49 9.573 9.573 0 0 1 1.52 5.49 9.12 9.12 0 0 1-6 9 18.228 18.228 0 0 1-7 1.2h-8.87l.04-20.38zm8.7 18.69a14.827 14.827 0 0 0 5.72-1 7.672 7.672 0 0 0 3.56-2.88 8.311 8.311 0 0 0 1.22-4.59 8.424 8.424 0 0 0-1.22-4.62 7.59 7.59 0 0 0-3.56-2.87 14.827 14.827 0 0 0-5.72-1h-6.13v17l6.13-.04zM306.36 129.6a7.069 7.069 0 0 1-3.1-2.64 7.3 7.3 0 0 1-1.09-4 7.402 7.402 0 0 1 1.09-4 7.142 7.142 0 0 1 3.06-2.67 11.737 11.737 0 0 1 9.16 0 7.003 7.003 0 0 1 3 2.57 7.08 7.08 0 0 1 1.05 3.87v.73h-16.11v-1.48h14.88l-1.3 1.22v-.71a5.553 5.553 0 0 0-.79-3 4.927 4.927 0 0 0-2.16-1.87 7.393 7.393 0 0 0-3.17-.64 7.641 7.641 0 0 0-3.21.65 5.14 5.14 0 0 0-2.21 1.91 5.467 5.467 0 0 0-.8 3v.71a5.617 5.617 0 0 0 .8 3.06 5.252 5.252 0 0 0 2.27 1.93 8.26 8.26 0 0 0 3.43.66 9.252 9.252 0 0 0 2.58-.33 5.392 5.392 0 0 0 1.89-.94 3.4 3.4 0 0 0 1.08-1.42l.06-.13h2.47v.15a4.577 4.577 0 0 1-1 1.73 6.32 6.32 0 0 1-1.75 1.39 9.451 9.451 0 0 1-2.43.9c-.984.227-1.991.334-3 .32a11.43 11.43 0 0 1-4.7-.97zM322.69 115.53h2.64l6 12.77h.07l6-12.77h2.6l-7.32 14.72H330l-7.31-14.72zM353.27 115.53h2.52l4.43 12.64h.06l4.91-12.64h2.52l4.91 12.64h.07l4.42-12.64h2.52L374 130.25h-2.63L366.48 118h-.06l-4.89 12.23h-2.65l-5.61-14.7zM384.76 112.5a.997.997 0 0 1 0-1.75 1.877 1.877 0 0 1 1.16-.36c.426-.015.844.112 1.19.36a.997.997 0 0 1 0 1.75 1.878 1.878 0 0 1-1.19.37 1.828 1.828 0 0 1-1.16-.37zm-.09 3h2.5v14.72h-2.5V115.5zM396.26 129.62a3.302 3.302 0 0 1-1.2-2.82v-9.7h-2.9v-1.57h2.9v-4h2.58v4h3.88v1.57h-3.88v9.67a1.936 1.936 0 0 0 .69 1.7 3.647 3.647 0 0 0 2.07.48h1.12v1.52l-.73.08h-.9a6.002 6.002 0 0 1-3.63-.93zM407.53 109.82H410v8.4h.06a5.285 5.285 0 0 1 2.42-2.15 9.255 9.255 0 0 1 4-.8 9.015 9.015 0 0 1 3.74.73 5.782 5.782 0 0 1 2.49 2.06c.601.931.907 2.022.88 3.13v9.06h-2.48v-8.76a4.144 4.144 0 0 0-.33-1.855 4.14 4.14 0 0 0-1.12-1.515 6.136 6.136 0 0 0-4-1.19 7.144 7.144 0 0 0-3 .59 4.808 4.808 0 0 0-2 1.64 4.198 4.198 0 0 0-.71 2.41v8.68h-2.5l.08-20.43zM442.89 130a5.474 5.474 0 0 1-2.3-1.53 3.43 3.43 0 0 1-.82-2.27 3.338 3.338 0 0 1 1.83-3 11.447 11.447 0 0 1 5.24-1.26l7.39-.35V123l-7.09.35a8.43 8.43 0 0 0-3.57.84 2.176 2.176 0 0 0-1.26 1.94 2.222 2.222 0 0 0 1.25 2 6.321 6.321 0 0 0 3.24.74 8.646 8.646 0 0 0 3.14-.54 5.698 5.698 0 0 0 2.21-1.5 3.153 3.153 0 0 0 .83-2.12v-4.38a2.895 2.895 0 0 0-1.28-2.5 6.085 6.085 0 0 0-3.59-.91 7.436 7.436 0 0 0-3.5.72 3.142 3.142 0 0 0-1.059.816 3.155 3.155 0 0 0-.621 1.184v.15h-2.4v-.17a4.003 4.003 0 0 1 1.15-2.26 6.615 6.615 0 0 1 2.62-1.53 11.834 11.834 0 0 1 3.86-.56 11.36 11.36 0 0 1 3.9.6 5.702 5.702 0 0 1 2.54 1.71 4 4 0 0 1 .9 2.6v10.08H453v-2.7h-.06a4.933 4.933 0 0 1-1.53 1.56 8.5 8.5 0 0 1-2.32 1c-2.033.546-4.18.487-6.18-.17l-.02.05zM476.35 129.89a8.612 8.612 0 0 1-3.5-2 4.72 4.72 0 0 1-1.47-3v-.2h2.58v.2a3.368 3.368 0 0 0 1.17 2 6.83 6.83 0 0 0 2.64 1.34c1.242.335 2.524.493 3.81.47 1.256.025 2.51-.133 3.72-.47a5.775 5.775 0 0 0 2.47-1.36 2.847 2.847 0 0 0 .88-2.06 2.74 2.74 0 0 0-1.39-2.4 12.662 12.662 0 0 0-4.55-1.44l-3-.5a14.558 14.558 0 0 1-5.83-2 4.106 4.106 0 0 1-1.87-3.5 4.13 4.13 0 0 1 1.22-2.87 8 8 0 0 1 3.29-2 15.14 15.14 0 0 1 4.8-.7 14.325 14.325 0 0 1 4.72.71 8.46 8.46 0 0 1 3.31 2c.81.8 1.304 1.865 1.39 3v.2h-2.58v-.18a3.714 3.714 0 0 0-1.11-2.07 6.153 6.153 0 0 0-2.37-1.34 11.442 11.442 0 0 0-3.42-.47 11.738 11.738 0 0 0-3.47.47 5.594 5.594 0 0 0-2.29 1.28 2.654 2.654 0 0 0-.82 1.93c.004.474.134.939.377 1.346.242.408.588.744 1.003.974a12.003 12.003 0 0 0 4.36 1.41l3 .49c2.117.245 4.16.926 6 2a4.142 4.142 0 0 1 1.84 3.57 4.351 4.351 0 0 1-1.2 3.05 7.803 7.803 0 0 1-3.41 2 19.375 19.375 0 0 1-10.32 0l.02.12zM497.12 115.53h2.5v2.55h.06a4.587 4.587 0 0 1 2.06-2 7.305 7.305 0 0 1 3.53-.79 8.14 8.14 0 0 1 2.61.39c.711.235 1.37.605 1.94 1.09.512.446.91 1.008 1.16 1.64h.07a4.865 4.865 0 0 1 1.36-1.62 6.41 6.41 0 0 1 2.11-1.1 9.537 9.537 0 0 1 6.09.21 5.194 5.194 0 0 1 2.23 1.71c.54.758.82 1.67.8 2.6v10.06h-2.5v-9.64a3.315 3.315 0 0 0-1.21-2.7 5.192 5.192 0 0 0-3.36-1 5.998 5.998 0 0 0-2.58.52 4.16 4.16 0 0 0-1.75 1.43 3.68 3.68 0 0 0-.62 2.1v9.27h-2.5v-9.81a3.068 3.068 0 0 0-1.25-2.56 5.301 5.301 0 0 0-3.26-.95 5.827 5.827 0 0 0-2.58.54 4.356 4.356 0 0 0-1.76 1.51 3.934 3.934 0 0 0-.65 2.24v9h-2.5v-14.69zM530.45 112.5a.997.997 0 0 1 0-1.75 1.877 1.877 0 0 1 1.16-.36c.426-.015.844.112 1.19.36a.997.997 0 0 1 0 1.75 1.878 1.878 0 0 1-1.19.37 1.828 1.828 0 0 1-1.16-.37zm-.09 3h2.51v14.72h-2.51V115.5zM539.88 109.82h2.5v20.43h-2.5v-20.43zM552.4 129.6a7.002 7.002 0 0 1-3.09-2.64 7.3 7.3 0 0 1-1.09-4 7.402 7.402 0 0 1 1.09-4 7.142 7.142 0 0 1 3.06-2.67 10.38 10.38 0 0 1 4.6-.95c1.569-.041 3.127.27 4.56.91a6.776 6.776 0 0 1 4 6.44v.73h-16.06v-1.48h14.88l-1.27 1.34v-.71a5.65 5.65 0 0 0-.79-3 4.927 4.927 0 0 0-2.16-1.87 7.437 7.437 0 0 0-3.18-.64 7.596 7.596 0 0 0-3.2.65 5.084 5.084 0 0 0-2.21 1.91 5.467 5.467 0 0 0-.8 3v.71a5.617 5.617 0 0 0 .8 3.06 5.196 5.196 0 0 0 2.27 1.93 8.229 8.229 0 0 0 3.43.66 9.252 9.252 0 0 0 2.58-.33 5.478 5.478 0 0 0 1.89-.94 3.4 3.4 0 0 0 1.08-1.42l.06-.13h2.46v.15a4.577 4.577 0 0 1-1 1.73 6.38 6.38 0 0 1-1.76 1.39 9.213 9.213 0 0 1-2.42.9 12.62 12.62 0 0 1-3 .32 11.482 11.482 0 0 1-4.73-1.05zM572.86 130a1.13 1.13 0 0 1-.52-.94 1.116 1.116 0 0 1 .52-.94c.364-.259.804-.39 1.25-.37.449-.017.891.113 1.26.37a1.148 1.148 0 0 1 .5.94 1.16 1.16 0 0 1-.5.94 2.07 2.07 0 0 1-1.26.38 2 2 0 0 1-1.25-.38zm0-20.18h2.59l-.17 14H573l-.14-14z" fill="#FFFBF9"/><path d="M84.096 109.891c6.709-6.709 6.592-17.704-.262-24.558-6.854-6.854-17.849-6.97-24.558-.262-6.709 6.71-6.592 17.704.262 24.558 6.854 6.854 17.849 6.971 24.558.262zM41.05 104.64c6 6 7.89 13.82 4.24 17.47-3.65 3.65-11.48 1.76-17.47-4.24-5.99-6-7.89-13.81-4.24-17.47 3.65-3.66 11.47-1.75 17.47 4.24zM40.42 71.15c6 6 7.89 13.81 4.24 17.46-3.65 3.65-11.48 1.76-17.47-4.23C21.2 78.39 19.3 70.56 23 66.9c3.7-3.66 11.42-1.75 17.42 4.25zM58.58 53c6 6 7.89 13.82 4.24 17.47-3.65 3.65-11.47 1.76-17.47-4.24-6-6-7.89-13.82-4.24-17.46C44.76 45.13 52.59 47 58.58 53zM89.51 54.83c6 6 7.9 13.83 4.25 17.48-3.65 3.65-11.48 1.75-17.48-4.25s-7.89-13.81-4.23-17.47c3.66-3.66 11.47-1.75 17.46 4.24z" fill="#EE6C4D" stroke="#1C2541" stroke-width="1.74" stroke-miterlimit="10"/><path d="m112.25 60.34 17.06 17.07L57.68 149a12.058 12.058 0 0 1-20.12-8.616A12.06 12.06 0 0 1 40.62 132l71.63-71.66z" fill="#FFF5EE" stroke="#1C2541" stroke-width="2.22" stroke-miterlimit="10"/><path d="M134.93 54.69c.424.418.808.873 1.15 1.36v.08l-2.6-2.61.08.06c.481.338.939.71 1.37 1.11z" stroke="#1C2541" stroke-width="2.22" stroke-miterlimit="10"/><path d="M168.17 70.18a7.24 7.24 0 0 1 0 10.2l-20.83 20.81a7.2 7.2 0 0 1-10.2 0l-3.74-3.74a7.252 7.252 0 0 1 0-10.2l2.9-2.86 14-14 3.87-3.87a7.24 7.24 0 0 1 10.22 0l3.78 3.66z" fill="#7FD7DA" stroke="#1C2541" stroke-width="2.22" stroke-miterlimit="10"/><path d="m133.53 53.52 2.6 2.61v-.08l14.24 14.24-14 14-34-34-1.84-2.72L88.1 29.54a1.87 1.87 0 0 1 2.52-2.48L109 33.57l7.08 2.51c.11.05.17.15.29.23l17.27 17.27-.11-.06z" fill="#7FD7DA" stroke="#1C2541" stroke-width="2.62" stroke-miterlimit="10"/><path d="m136.13 56.13-2.59-2.6h.07l2.47 2.47a.553.553 0 0 1 .05.13z" fill="#1C2541" stroke="#1C2541" stroke-width="2.62" stroke-miterlimit="10"/><path d="m142.91 83.99-.94 8.74 8.46-.9M150.97 75.93l8.74-.94-.9 8.46M149.15 78.02l3.37 11.44" stroke="#1C2541" stroke-width="1.94" stroke-miterlimit="10" stroke-linecap="round"/></svg>