<?xml version="1.0" encoding="utf-8"?>
<!-- Generator: Adobe Illustrator 26.0.1, SVG Export Plug-In . SVG Version: 6.00 Build 0)  -->
<svg version="1.1" id="Layer_1" xmlns="http://www.w3.org/2000/svg" xmlns:xlink="http://www.w3.org/1999/xlink" x="0px" y="0px"
	 viewBox="0 0 544 357.3" style="enable-background:new 0 0 544 357.3;" xml:space="preserve">
<style type="text/css">
	.st0{fill:#BCBEC0;stroke:#231F20;stroke-miterlimit:10;}
	.st1{fill:none;stroke:#231F20;stroke-width:0.5;stroke-miterlimit:10;}
	.st2{fill:none;stroke:#231F20;stroke-miterlimit:10;}
	.st3{fill:none;stroke:#000000;stroke-linecap:round;stroke-linejoin:round;}
	.st4{fill:#6AFF6C;stroke:#231F20;stroke-linecap:round;stroke-linejoin:round;}
	.st5{fill:#008947;stroke:#000000;stroke-linecap:round;stroke-linejoin:round;}
	.st6{fill:none;stroke:#231F20;stroke-linecap:round;stroke-linejoin:round;}
	.st7{fill:#008947;stroke:#231F20;stroke-linecap:round;stroke-linejoin:round;}
	.st8{fill:#E6E7E8;}
	.st9{fill:#6AFF6C;stroke:#231F20;stroke-miterlimit:10;}
	.st10{fill:#F1F2F2;stroke:#231F20;stroke-width:0.5;stroke-linecap:round;stroke-linejoin:round;}
	.st11{fill:#86E7E8;stroke:#000000;stroke-width:0.39;stroke-linejoin:round;}
	.st12{fill:#27AAE1;stroke:#000000;stroke-width:0.39;stroke-linejoin:round;}
	.st13{fill:#FFF5EE;stroke:#000000;stroke-width:0.39;stroke-linejoin:round;}
	.st14{fill:none;stroke:#000000;stroke-width:0.39;stroke-linejoin:round;}
	.st15{fill:none;stroke:#000000;stroke-linejoin:round;}
	.st16{fill:none;stroke:#000000;stroke-width:0.76;stroke-linejoin:round;}
	.st17{fill:#002BFF;stroke:#231F20;stroke-miterlimit:10;}
	.st18{fill:#A7A9AC;stroke:#000000;stroke-width:0.5;stroke-linejoin:round;}
	.st19{fill:none;stroke:#000000;stroke-width:0.5;stroke-linejoin:round;}
	.st20{fill:#F4EA61;stroke:#000000;stroke-width:0.18;stroke-linejoin:round;}
	.st21{fill:none;stroke:#000000;stroke-width:0.29;stroke-linejoin:round;}
	.st22{stroke:#000000;stroke-width:0.17;stroke-linejoin:round;}
	.st23{fill:none;stroke:#000000;stroke-width:0.17;stroke-linejoin:round;}
	.st24{fill:none;stroke:#000000;stroke-width:0.17;stroke-linecap:round;stroke-linejoin:round;}
	.st25{stroke:#000000;stroke-width:0.17;stroke-linecap:round;stroke-linejoin:round;}
	.st26{fill:#BCBEC0;stroke:#231F20;stroke-width:0.5;stroke-linecap:round;stroke-linejoin:round;}
	.st27{fill:#008947;stroke:#231F20;stroke-width:0.5;stroke-linecap:round;stroke-linejoin:round;}
	.st28{fill:#550900;stroke:#231F20;stroke-width:0.5;stroke-linecap:round;stroke-linejoin:round;}
	.st29{stroke:#231F20;stroke-width:0.5;stroke-linecap:round;stroke-linejoin:round;}
</style>
<g id="background">
	<rect x="0.5" y="0.5" class="st0" width="543" height="356.3"/>
</g>
<g id="dino">
	<g id="scaffolding">
		<rect x="128.6" y="184.7" class="st1" width="51.5" height="24.1"/>
		<rect x="128.6" y="208.8" class="st1" width="51.5" height="24.1"/>
		<line class="st1" x1="180.1" y1="184.7" x2="128.6" y2="208.8"/>
		<line class="st1" x1="128.6" y1="184.7" x2="180.1" y2="208.8"/>
		<line class="st1" x1="128.6" y1="232.9" x2="180.1" y2="208.8"/>
		<line class="st1" x1="180.1" y1="232.9" x2="128.6" y2="208.8"/>
		<rect x="128.6" y="232.6" class="st1" width="51.5" height="24.1"/>
		<rect x="128.6" y="256.7" class="st1" width="51.5" height="24.1"/>
		<line class="st1" x1="180.1" y1="232.6" x2="128.6" y2="256.7"/>
		<line class="st1" x1="128.6" y1="232.6" x2="180.1" y2="256.7"/>
		<line class="st1" x1="128.6" y1="280.8" x2="180.1" y2="256.7"/>
		<line class="st1" x1="180.1" y1="280.8" x2="128.6" y2="256.7"/>
		<rect x="128.6" y="160.2" class="st1" width="51.5" height="24.5"/>
		<line class="st1" x1="128.6" y1="172.4" x2="180.1" y2="172.4"/>
	</g>
	<path class="st2" d="M223.2,171.3"/>
	<path class="st3" d="M271,261.6c-1.1-3.8-2.3-7.5-3.8-11.1 M235.2,257.2c-0.6-5.9-0.2-11.8,1.2-17.5"/>
	<path class="st4" d="M197.6,217.8c-1.8,4-6.5,10.2-11,3.3s4.9-31.6,10.1-43.1C195.9,192.3,195.7,207.9,197.6,217.8z"/>
	<path class="st4" d="M228.3,285.3c-11,3-33.6,7.8-36.1,3.3c-2.2-3.9,12-10.6,12.4-11h-0.1c1.9-3.9-0.2-30.4,1-44.5
		c7.3,8.7,18.1,16.8,25.9,21.8C236.2,272.3,231.3,282.4,228.3,285.3z"/>
	<path class="st5" d="M327.3,215.2c-12.5,8.6-24.3,10-34.5,7.6l15.3-23.7L327.3,215.2z"/>
	<path class="st5" d="M425.1,263.8l-24,24c-7.1-11.3-8-25.1-6.4-34.8L425.1,263.8z"/>
	<path class="st5" d="M231.4,101.9c-8.5-3.9-16-2.7-21.5,0l9.4-14.1L231.4,101.9z"/>
	<path class="st5" d="M250.2,97.5l-6.6,15.3c-1.8-3.2-4.3-5.9-7.2-8.1c-0.4-0.3-0.8-0.5-1.2-0.8L250.2,97.5z"/>
	<path class="st5" d="M271,108.8l-20.8,18.3c-1.7-5-3.9-9.9-6.6-14.4L271,108.8z"/>
	<path class="st5" d="M296.2,130l-20.4,13.5c-1.6-10.1-4-20-7.3-29.7L296.2,130z"/>
	<path class="st5" d="M375.9,255.3l6.1,32.5l-0.3,0c-2.5-0.5-4.9-1.8-6.7-3.6c-9.3-8.8-19.3-17-29.8-24.4L375.9,255.3z"/>
	<path d="M224.9,116.3c0,2.8-1.1,5-2.5,5s-2.5-2.2-2.5-5s1.1-5,2.5-5S224.9,113.6,224.9,116.3z"/>
	<path d="M210.7,113.8c0,2.8-1.1,5-2.5,5s-2.5-2.2-2.5-5s1.1-5,2.5-5S210.7,111,210.7,113.8z"/>
	<path d="M193.9,141.6c-1.2,1.1-2.5,1.7-3,1.3s0-1.7,1.2-2.8s2.5-1.7,3-1.3S195.1,140.5,193.9,141.6z"/>
	<path d="M182.3,139c-1.1,1.1-2.5,1.7-3,1.3s0-1.7,1.2-2.8s2.5-1.7,3-1.3S183.5,137.8,182.3,139z"/>
	<path class="st4" d="M356.4,182.9L356.4,182.9c-1.3,1.6-2.8,3.6-4.5,5.9c-3.5,5.4-7.5,10.4-11.8,15.2c-3.8,4.2-8.1,7.9-12.7,11.2
		c-12.5,8.6-24.3,10-34.5,7.6c-13-3-23.4-12.1-29.1-20.1l-0.2-0.3c-1.4-2.2-2.2-4.7-2.2-7.3c-0.3-12.8-1.6-25.6-3.7-38.3
		c-1.6-10.1-4-20-7.3-29.7c-1.7-5-3.9-9.9-6.6-14.4c-1.8-3.2-4.3-5.9-7.2-8.1c-0.4-0.3-0.8-0.5-1.2-0.8c-1.2-0.7-2.5-1.4-3.8-2
		c-8.5-3.9-16-2.7-21.5,0c-3.4,1.7-6.3,4.1-8.7,7c-7.5,6.3,0.6,11.7-9,14.4c-15.4,4.4-20.8,12.8-20.4,20.7l0,0
		c0.2,3,2.1,5.9,5.9,7.6c2.9,9.9,16.8,11.7,21.4,8.5c-0.6,5.9-1.9,10.2-2.4,18c-0.9,14.3-1.1,29.9,0.9,39.7c0.2,1.2,0.5,2.3,0.8,3.3
		c1.2,3.9,3.8,8,7.1,12c7.3,8.7,18.1,16.8,25.9,21.8c1.4,0.9,2.6,1.7,3.8,2.3c0.8,8.8,3,17.4,6.5,25.6c-4.7,3-11.9,9.6-3.4,11.4
		c10.6,2.2,14,2.5,28.9-2.2c9-2.8,7.3-17.8,3.8-30.3c40.8,3.8,58.1-12.8,64.4-22c5.4-10.8,12.1-24.1,17.6-35.7
		c3.5-7.4,6.5-14.1,8.4-19C365,175.6,364.7,172.5,356.4,182.9z M179.3,140.3c-0.5-0.4,0-1.7,1.2-2.8s2.5-1.7,3-1.3s0,1.7-1.2,2.8
		S179.8,140.7,179.3,140.3z M182.7,155.6l-2.3-3.2c1.4,0.3,2.8,0.5,4.2,0.5l-0.6,2.4c-0.1,0.4-0.5,0.7-0.9,0.6
		C183,155.9,182.8,155.8,182.7,155.6z M190.6,156.1l-2.3-3.2c1.6-0.1,3.1-0.4,4.7-0.7l-1,3.7c-0.1,0.4-0.5,0.6-0.9,0.5
		C190.9,156.3,190.7,156.2,190.6,156.1L190.6,156.1z M193.9,141.7c-1.2,1.1-2.5,1.7-3,1.3s0-1.7,1.2-2.8s2.5-1.7,3-1.3
		S195.1,140.5,193.9,141.7L193.9,141.7z M198.9,153.7l-1.6-2.4c1.3-0.3,2.4-0.5,3.5-0.6l-0.6,2.7c-0.1,0.4-0.5,0.6-0.9,0.5
		C199.1,153.9,198.9,153.8,198.9,153.7L198.9,153.7z M222.4,111.4c1.4,0,2.5,2.2,2.5,5s-1.1,5-2.5,5s-2.5-2.2-2.5-5
		S221,111.3,222.4,111.4L222.4,111.4z M208.2,108.9c1.4,0,2.5,2.2,2.5,5s-1.1,5-2.5,5s-2.5-2.2-2.5-5S206.8,108.8,208.2,108.9
		L208.2,108.9z M209.7,149.5l-1,3.1c-0.1,0.4-0.5,0.6-0.9,0.5c-0.2-0.1-0.3-0.2-0.4-0.4l-1.4-2.6C207.3,150,208.5,149.8,209.7,149.5
		L209.7,149.5z M215.7,231.4c-7.8,0-14.1-14.9-14.1-33.4s6.3-33.4,14.1-33.4s14.1,15,14.1,33.4S223.5,231.3,215.7,231.4L215.7,231.4
		z"/>
	<path class="st6" d="M215.7,143.1c-2.1,4-3.8,5.6-6,6.4"/>
	<path class="st6" d="M200.8,150.6c2.1-0.3,3.8-0.4,5.2-0.5"/>
	<path class="st6" d="M193,152.1c0.7-0.1,1.5-0.3,2.3-0.5s1.4-0.3,2-0.4"/>
	<path class="st6" d="M184.7,152.9c1.2,0,2.4,0,3.7-0.1"/>
	<path class="st6" d="M180.4,152.4c-0.9-0.2-1.8-0.5-2.7-0.9"/>
	<path class="st6" d="M214.2,142c0,0,3.2-1.3,4.2,1.9"/>
	<path class="st6" d="M211.7,105.8c0,0-4.3-2.7-7.9,3.2"/>
	<path class="st6" d="M227.3,110.6c0,0-2.9-5.5-8-1.9"/>
	<path class="st6" d="M181.7,134.8"/>
	<path class="st6" d="M356.4,183"/>
	<path class="st7" d="M357.6,195.8l25.2-9.5L353,204c3.5-7.4,6.5-14.1,8.4-19l20.8-15.9l-24.9,26.2c-0.1,0.1,0,0.3,0.1,0.4
		C357.5,195.8,357.5,195.8,357.6,195.8z"/>
	<path class="st7" d="M356.4,182.9L356.4,182.9c-1.3,1.6-2.8,3.6-4.5,5.9c-3.5,5.4-7.5,10.4-11.8,15.2l-24.3-27.6l30.4,19.6
		c0.1,0.1,0.2,0,0.3-0.1c0,0,0-0.1,0-0.2L335,153.7L356.4,182.9z"/>
	<path class="st3" d="M233.9,174.4c-2.7,16.4,7.1,53.2,20.8,53.6s-2.1-36.9-5.3-53.6"/>
	<path class="st8" d="M229.8,197.9c0,18.4-6.3,33.4-14.1,33.4s-14.1-14.9-14.1-33.4s6.3-33.4,14.1-33.4S229.8,179.5,229.8,197.9z"/>
	<path class="st9" d="M176.1,150.3"/>
	<path class="st9" d="M200.7,283"/>
	<path class="st9" d="M192.1,288.2"/>
	<path class="st9" d="M243.2,286.4"/>
	<path class="st9" d="M193.9,212.9"/>
	<path class="st9" d="M244.8,220.9"/>
	<path class="st2" d="M181.4,152.6"/>
	<path class="st10" d="M209.7,149.5l-1,3.2c-0.1,0.4-0.5,0.6-0.9,0.4c-0.2-0.1-0.3-0.2-0.4-0.3l-1.4-2.6
		C207.3,150,208.5,149.8,209.7,149.5z"/>
	<path class="st10" d="M200.8,150.6l-0.6,2.7c-0.1,0.4-0.5,0.7-0.9,0.6c-0.2,0-0.4-0.2-0.5-0.3l-1.6-2.4
		C198.6,150.9,199.7,150.8,200.8,150.6z"/>
	<path class="st10" d="M193,152.1l-1,3.7c-0.1,0.4-0.5,0.6-0.9,0.5c-0.2,0-0.3-0.1-0.4-0.3l-2.3-3.2
		C189.9,152.7,191.5,152.5,193,152.1z"/>
	<path class="st10" d="M184.7,152.9l-0.6,2.4c-0.1,0.4-0.5,0.6-0.9,0.5c-0.2,0-0.3-0.1-0.4-0.3l-2.3-3.2
		C181.8,152.7,183.2,152.9,184.7,152.9z"/>
	<line class="st2" x1="184.7" y1="152.9" x2="184.7" y2="152.9"/>
	<path class="st11" d="M187.6,156c0.2-1.5,2.4-2.5,3.8-2.2c0.9,0.2,1,0.7,2.2,1c1.4,0.2,2.1-0.3,2.4,0s-0.5,2-1.8,3
		c-0.3,0.2-2.9,2.2-5,1C188.1,158.2,187.5,157.1,187.6,156z"/>
	<path class="st12" d="M202.8,161.1c0,0.9-0.7,1.6-1.6,1.6c0,0,0,0,0,0h-39.7c-0.9-0.1-1.5-0.8-1.4-1.7c0.1-0.8,0.7-1.4,1.4-1.4
		h39.7C202.1,159.5,202.8,160.2,202.8,161.1L202.8,161.1z"/>
	<path class="st13" d="M200.6,159.5h-8.8l-3.5-3.3c0.8-0.2,1.6-0.2,2.3,0.2c1.5,0.5,1.2-0.3,1.2-0.3s-0.4-0.3,0.6-0.3s1,0.2,1,0.2
		s0.8,0.7,1.2,0.3s1.6-0.3,2.5-0.1L200.6,159.5z"/>
	<path class="st14" d="M193.3,159c-0.1-0.2-0.3-0.4-0.5-0.5c-0.5-0.4-1-0.7-1.6-1.1c-0.2-0.1-0.4-0.2-0.6-0.3"/>
	<path class="st14" d="M194.5,159.1c-0.2-0.3-0.5-0.5-0.8-0.8c-0.3-0.2-0.5-0.4-0.7-0.6c-0.2-0.2-0.3-0.6-0.2-0.9"/>
	<path class="st14" d="M195.8,158.9c-0.1-0.3-0.2-0.6-0.4-0.9c-0.1-0.1-0.2-0.3-0.3-0.4c-0.3-0.3-0.7-0.6-1.1-0.7"/>
	<path class="st14" d="M197.5,159c-0.5-0.4-1-0.8-1.3-1.3c-0.2-0.2-0.3-0.5-0.2-0.8"/>
	<path class="st14" d="M198.8,159.2c-0.1-0.4-0.3-0.8-0.7-1.1l-1.3-1.5"/>
	<line class="st15" x1="384.7" y1="127.2" x2="359.2" y2="127.2"/>
	<line class="st15" x1="359.2" y1="116.3" x2="359.2" y2="127.2"/>
	<path class="st16" d="M359.2,118.8c0,0,8.9-0.7,8.1,8.3"/>
	<line class="st16" x1="364.1" y1="119.9" x2="367.4" y2="115.6"/>
	<line class="st16" x1="368.9" y1="120" x2="364.1" y2="119.9"/>
	<path class="st17" d="M539.6,295.7"/>
	<path class="st17" d="M-3.5,295.7"/>
</g>
<g id="equipment">
	<g id="crane">
		<path class="st18" d="M289.5,120.7c0,1.8-3.4,3.2-7.5,3.2s-7.5-1.4-7.5-3.2s3.4-3.2,7.5-3.2S289.5,118.9,289.5,120.7z"/>
		<path class="st18" d="M289.5,120.7v3.2c0,1.8-3.4,3.2-7.5,3.2s-7.5-1.4-7.5-3.2v-3.2c0,1.8,3.4,3.2,7.5,3.2
			S289.5,122.4,289.5,120.7z"/>
		<polygon class="st18" points="434.6,241.7 435.8,248.2 349.6,248.2 351.8,241.8 374.7,241.8 374.7,233.8 384.7,233.8 384.7,80.2 
			384.9,79.2 385.2,77.4 268.5,89.6 267.7,81.8 343.5,73.8 386.8,69.3 388.1,62.3 391,46.8 391.1,46.8 391.5,44.3 392,46.8 
			394.9,62.3 396.1,68.3 432.5,64.5 449.9,62.6 450.7,70.5 397.6,76.1 398.2,79.2 398.4,80.2 398.4,233.8 408.4,233.8 408.4,241.7 
					"/>
		<polygon class="st18" points="398.4,79.2 398.4,80.2 398.2,79.2 		"/>
		<line class="st19" x1="391" y1="46.8" x2="343.5" y2="73.8"/>
		<line class="st19" x1="392" y1="46.8" x2="432.5" y2="64.5"/>
		<line class="st19" x1="282" y1="120.7" x2="282" y2="88.2"/>
	</g>
	<g id="ladder">
		<line class="st1" x1="306.2" y1="213.6" x2="335.8" y2="288.4"/>
		<line class="st1" x1="315" y1="210.1" x2="344.6" y2="284.9"/>
		<line class="st1" x1="323.8" y1="258" x2="332.5" y2="254.3"/>
		<line class="st1" x1="328.9" y1="271" x2="337.6" y2="267.4"/>
		<line class="st1" x1="317.9" y1="243.2" x2="326.7" y2="239.8"/>
		<line class="st1" x1="314.5" y1="234.4" x2="323.4" y2="231.3"/>
		<line class="st1" x1="311.8" y1="227.7" x2="320.7" y2="224.6"/>
		<line class="st1" x1="309" y1="220.7" x2="318" y2="217.7"/>
		<line class="st1" x1="332.1" y1="279.1" x2="340.7" y2="275.2"/>
		<line class="st1" x1="325.9" y1="263.4" x2="334.8" y2="260.1"/>
		<line class="st1" x1="320.5" y1="249.6" x2="329.3" y2="246.3"/>
	</g>
	<g id="ladder-2">
		<line class="st1" x1="112.9" y1="224.7" x2="91.2" y2="279.8"/>
		<line class="st1" x1="106.4" y1="222.1" x2="84.7" y2="277.3"/>
		<line class="st1" x1="100" y1="257.4" x2="93.6" y2="254.7"/>
		<line class="st1" x1="96.2" y1="267" x2="89.8" y2="264.3"/>
		<line class="st1" x1="104.3" y1="246.5" x2="97.8" y2="244"/>
		<line class="st1" x1="106.9" y1="240" x2="100.3" y2="237.7"/>
		<line class="st1" x1="108.8" y1="235.1" x2="102.2" y2="232.8"/>
		<line class="st1" x1="110.9" y1="229.9" x2="104.2" y2="227.8"/>
		<line class="st1" x1="93.9" y1="273" x2="87.5" y2="270.1"/>
		<line class="st1" x1="98.4" y1="261.4" x2="91.9" y2="259"/>
		<line class="st1" x1="102.4" y1="251.3" x2="95.9" y2="248.8"/>
	</g>
	<g id="ladder-3">
		<line class="st1" x1="131.6" y1="177.6" x2="109.8" y2="232.7"/>
		<line class="st1" x1="125.1" y1="175" x2="103.3" y2="230.1"/>
		<line class="st1" x1="118.6" y1="210.3" x2="112.2" y2="207.6"/>
		<line class="st1" x1="114.8" y1="219.9" x2="108.4" y2="217.2"/>
		<line class="st1" x1="122.9" y1="199.4" x2="116.4" y2="196.9"/>
		<line class="st1" x1="125.5" y1="192.9" x2="118.9" y2="190.6"/>
		<line class="st1" x1="127.5" y1="188" x2="120.9" y2="185.7"/>
		<line class="st1" x1="129.5" y1="182.8" x2="122.9" y2="180.6"/>
		<line class="st1" x1="112.5" y1="225.9" x2="106.2" y2="223"/>
		<line class="st1" x1="117.1" y1="214.3" x2="110.5" y2="211.9"/>
		<line class="st1" x1="121.1" y1="204.2" x2="114.6" y2="201.7"/>
	</g>
	<path class="st20" d="M153.7,154.1l1.1-0.1l4.4-0.3l4.2-0.3l1.3-0.1c-0.3-3.1-3.1-5.3-6.2-4.9C155.7,148.7,153.6,151.2,153.7,154.1
		z"/>
	<path class="st21" d="M154.8,154.2c-0.1,2.4,1.7,4.4,4.1,4.6c2.4,0.1,4.4-1.7,4.6-4.1c0-0.1,0-0.3,0-0.4c0-0.3,0-0.6-0.1-0.8
		l-4.2,0.3l-4.4,0.3C154.8,154.1,154.8,154.1,154.8,154.2z"/>
	<ellipse class="st22" cx="160.8" cy="155.3" rx="0.2" ry="0.9"/>
	<ellipse class="st22" cx="162.5" cy="154.7" rx="0.2" ry="0.9"/>
	<line class="st23" x1="159.2" y1="169.6" x2="159.2" y2="158.6"/>
	<path class="st23" d="M159.2,160.4"/>
	<path class="st23" d="M163.5,162.5"/>
	<line class="st23" x1="159.2" y1="169.6" x2="161.5" y2="172.4"/>
	<line class="st23" x1="156.2" y1="172.4" x2="159.2" y2="169.6"/>
	<path class="st20" d="M377.5,108.9l-1.1-0.1l-4.4-0.3l-4.2-0.3l-1.3-0.1c0.3-3.1,3.1-5.3,6.2-4.9
		C375.5,103.5,377.6,106,377.5,108.9z"/>
	<path class="st21" d="M376.4,109c0.1,2.4-1.7,4.4-4.1,4.6c-2.4,0.1-4.4-1.7-4.6-4.1c0-0.1,0-0.3,0-0.4c0-0.3,0-0.6,0.1-0.8l4.2,0.3
		l4.4,0.3C376.4,108.9,376.4,108.9,376.4,109z"/>
	<ellipse class="st22" cx="370.4" cy="110.1" rx="0.2" ry="0.9"/>
	<ellipse class="st22" cx="368.7" cy="109.5" rx="0.2" ry="0.9"/>
	<line class="st23" x1="371.9" y1="124.3" x2="372" y2="113.4"/>
	<line class="st23" x1="371.9" y1="115.2" x2="370.2" y2="119.2"/>
	<line class="st23" x1="374.3" y1="119" x2="371.9" y2="115.2"/>
	<line class="st23" x1="371.9" y1="124.3" x2="369.7" y2="127.2"/>
	<line class="st23" x1="374.9" y1="127.2" x2="371.9" y2="124.3"/>
	<line class="st24" x1="161.6" y1="164.8" x2="159.1" y2="162.5"/>
	<line class="st24" x1="164.4" y1="161.8" x2="161.6" y2="164.8"/>
	<line class="st24" x1="161.7" y1="163.4" x2="159.2" y2="162"/>
	<line class="st24" x1="163" y1="162.7" x2="161.7" y2="163.4"/>
	<circle class="st25" cx="367.6" cy="115.2" r="0.7"/>
	<circle class="st25" cx="369.1" cy="119.9" r="0.7"/>
	<path class="st26" d="M315.7,269.5c0,0.2-0.1,0.4-0.3,0.5c-2.3,1-4.9,1-7.2,0c-0.2-0.1-0.3-0.3-0.3-0.5c0-0.7,1.8-1.3,4-1.3
		S315.7,268.8,315.7,269.5z"/>
	<path class="st27" d="M315.3,270c-2.3,1-4.9,1-7.2,0C310.4,269,313,269,315.3,270z"/>
	<path class="st26" d="M315.7,269.5v6.8c0,0.7-1.8,1.3-3.9,1.3s-4-0.6-4-1.3v-6.8c0,0.2,0.1,0.4,0.3,0.5c2.3,1,4.9,1,7.2,0
		C315.5,269.9,315.6,269.7,315.7,269.5z"/>
	<path class="st28" d="M322.7,273l-3.1,3.2c-0.1,0.1-0.3,0.1-0.4,0l-0.4-0.4c-0.1-0.1-0.1-0.3,0-0.4c0,0,0,0,0,0l1.2-1.3l-2.6-2.6
		c-0.1-0.1-0.1-0.3,0-0.5l0.2-0.2c0.1-0.1,0.3-0.1,0.5,0l2.6,2.6l1.2-1.2c0.1-0.1,0.3-0.1,0.4,0l0.4,0.4
		C322.8,272.8,322.8,272.9,322.7,273C322.7,273,322.7,273,322.7,273z"/>
	<path class="st29" d="M324.5,275.6l-2.5,2.5c-0.2,0.2-0.5,0.2-0.6,0.1c0,0,0,0,0,0l-1.9-1.9l3.2-3.2l1.9,1.9
		C324.7,275.1,324.7,275.4,324.5,275.6z"/>
</g>
</svg>
