<svg width="544" height="357" viewBox="0 0 544 357" fill="none" xmlns="http://www.w3.org/2000/svg">
<rect width="544" height="357" fill="#7FD7DA"/>
<path d="M180.043 184.52H128.575V208.619H180.043V184.52Z" stroke="#231F20" stroke-width="0.5" stroke-miterlimit="10"/>
<path d="M180.043 208.609H128.575V232.708H180.043V208.609Z" stroke="#231F20" stroke-width="0.5" stroke-miterlimit="10"/>
<path d="M180.043 184.52L128.575 208.609" stroke="#231F20" stroke-width="0.5" stroke-miterlimit="10"/>
<path d="M128.575 184.52L180.043 208.609" stroke="#231F20" stroke-width="0.5" stroke-miterlimit="10"/>
<path d="M128.575 232.708L180.043 208.609" stroke="#231F20" stroke-width="0.5" stroke-miterlimit="10"/>
<path d="M180.043 232.708L128.575 208.609" stroke="#231F20" stroke-width="0.5" stroke-miterlimit="10"/>
<path d="M180.043 232.368H128.575V256.467H180.043V232.368Z" stroke="#231F20" stroke-width="0.5" stroke-miterlimit="10"/>
<path d="M180.043 256.467H128.575V280.566H180.043V256.467Z" stroke="#231F20" stroke-width="0.5" stroke-miterlimit="10"/>
<path d="M180.043 232.368L128.575 256.467" stroke="#231F20" stroke-width="0.5" stroke-miterlimit="10"/>
<path d="M128.575 232.368L180.043 256.467" stroke="#231F20" stroke-width="0.5" stroke-miterlimit="10"/>
<path d="M128.575 280.556L180.043 256.467" stroke="#231F20" stroke-width="0.5" stroke-miterlimit="10"/>
<path d="M180.043 280.556L128.575 256.467" stroke="#231F20" stroke-width="0.5" stroke-miterlimit="10"/>
<path d="M180.043 160.051H128.575V184.52H180.043V160.051Z" stroke="#231F20" stroke-width="0.5" stroke-miterlimit="10"/>
<path d="M128.575 172.28H180.043" stroke="#231F20" stroke-width="0.5" stroke-miterlimit="10"/>
<path d="M235.211 256.977C234.587 251.123 234.993 245.206 236.411 239.492M271 261.423C269.944 257.652 268.679 253.943 267.21 250.313L271 261.423Z" stroke="black" stroke-linecap="round" stroke-linejoin="round"/>
<path d="M197.633 217.581C195.833 221.578 191.103 227.792 186.633 220.908C182.163 214.024 191.513 189.356 196.753 177.875C195.893 192.123 195.663 207.71 197.633 217.581Z" fill="#6AFF6C" stroke="#231F20" stroke-linecap="round" stroke-linejoin="round"/>
<path d="M228.321 285.042C217.322 288.04 194.713 292.816 192.233 288.37C190.063 284.513 204.232 277.729 204.642 277.329H204.562C206.442 273.482 204.342 246.965 205.562 232.828C212.842 241.49 223.712 249.643 231.451 254.639C236.161 272.104 231.331 282.185 228.321 285.042Z" fill="#6AFF6C" stroke="#231F20" stroke-linecap="round" stroke-linejoin="round"/>
<path d="M327.258 215.023C314.758 223.626 302.929 225.015 292.719 222.647L307.999 198.977L327.258 215.023Z" fill="#008947" stroke="black" stroke-linecap="round" stroke-linejoin="round"/>
<path d="M425.124 263.611L401.125 287.59C394.055 276.29 393.125 262.542 394.755 252.85L425.124 263.611Z" fill="#008947" stroke="black" stroke-linecap="round" stroke-linejoin="round"/>
<path d="M231.431 101.782C222.912 97.875 215.432 99.044 209.922 101.782L219.292 87.6539L231.431 101.782Z" fill="#008947" stroke="black" stroke-linecap="round" stroke-linejoin="round"/>
<path d="M250.241 97.3654L243.631 112.632C241.815 109.475 239.355 106.735 236.411 104.589C236.011 104.316 235.611 104.056 235.211 103.81L250.241 97.3654Z" fill="#008947" stroke="black" stroke-linecap="round" stroke-linejoin="round"/>
<path d="M271 108.746L250.241 127.07C248.564 122.034 246.348 117.193 243.631 112.632L271 108.746Z" fill="#008947" stroke="black" stroke-linecap="round" stroke-linejoin="round"/>
<path d="M296.149 129.887L275.7 143.395C274.089 133.313 271.657 123.379 268.43 113.691L296.149 129.887Z" fill="#008947" stroke="black" stroke-linecap="round" stroke-linejoin="round"/>
<path d="M375.896 255.078L381.996 287.5L381.666 287.45C379.123 286.935 376.791 285.676 374.966 283.834C365.631 275.011 355.687 266.855 345.207 259.425L375.896 255.078Z" fill="#008947" stroke="black" stroke-linecap="round" stroke-linejoin="round"/>
<path d="M224.892 116.249C224.892 119.007 223.782 121.245 222.412 121.245C221.042 121.245 219.922 119.007 219.922 116.249C219.922 113.491 221.032 111.253 222.412 111.253C223.792 111.253 224.892 113.481 224.892 116.249Z" fill="black"/>
<path d="M210.692 113.691C210.692 116.449 209.582 118.687 208.202 118.687C206.822 118.687 205.722 116.449 205.722 113.691C205.722 110.934 206.832 108.696 208.202 108.696C209.572 108.696 210.692 110.934 210.692 113.691Z" fill="black"/>
<path d="M193.923 141.527C192.763 142.666 191.413 143.256 190.923 142.846C190.433 142.436 190.923 141.177 192.093 140.038C193.263 138.899 194.593 138.32 195.093 138.73C195.593 139.139 195.073 140.378 193.923 141.527Z" fill="black"/>
<path d="M182.313 138.849C181.163 139.988 179.813 140.578 179.313 140.168C178.813 139.759 179.313 138.5 180.483 137.361C181.653 136.222 182.983 135.642 183.483 136.052C183.983 136.461 183.473 137.72 182.313 138.849Z" fill="black"/>
<path d="M356.367 182.791C355.047 184.42 353.557 186.368 351.837 188.696C348.29 194.054 344.332 199.128 339.997 203.873C336.186 208.04 331.931 211.779 327.308 215.023C314.808 223.626 302.979 225.015 292.769 222.647C279.77 219.649 269.41 210.567 263.68 202.584L263.48 202.314C262.041 200.155 261.282 197.615 261.3 195.021C260.951 182.2 259.702 169.42 257.56 156.774C255.949 146.692 253.518 136.757 250.291 127.07C248.614 122.034 246.397 117.193 243.681 112.632C241.865 109.475 239.405 106.735 236.461 104.589C236.061 104.316 235.661 104.056 235.261 103.81C234.043 103.068 232.781 102.4 231.481 101.812C222.962 97.905 215.482 99.074 209.972 101.812C206.597 103.469 203.636 105.859 201.303 108.806C193.833 115.14 201.932 120.505 192.303 123.243C176.863 127.619 171.534 136.012 171.904 143.925C172.134 146.922 173.964 149.83 177.793 151.478C180.643 161.38 194.553 163.188 199.213 159.921C198.633 165.766 197.283 170.092 196.813 177.906C195.963 192.153 195.733 207.74 197.703 217.611C197.943 218.81 198.213 219.919 198.523 220.938C199.703 224.855 202.282 228.931 205.612 232.878C212.892 241.54 223.762 249.693 231.501 254.689C232.871 255.578 234.141 256.357 235.281 257.027C236.118 265.825 238.307 274.443 241.771 282.575C237.101 285.622 229.881 292.176 238.341 293.955C248.921 296.173 252.341 296.453 267.28 291.737C276.28 288.909 274.56 273.942 271.07 261.473C311.888 265.25 329.198 248.704 335.418 239.542C340.807 228.761 347.477 215.463 352.997 203.873C356.477 196.509 359.477 189.815 361.397 184.889C364.997 175.498 364.717 172.39 356.367 182.791ZM179.303 140.168C178.793 139.749 179.303 138.5 180.473 137.361C181.643 136.222 182.973 135.642 183.473 136.052C183.973 136.462 183.473 137.72 182.303 138.849C181.133 139.978 179.813 140.578 179.303 140.168ZM182.733 155.515L180.423 152.328C181.82 152.638 183.243 152.812 184.673 152.847L184.073 155.255C184.04 155.395 183.966 155.522 183.862 155.622C183.758 155.721 183.628 155.788 183.487 155.816C183.346 155.843 183.199 155.829 183.066 155.776C182.932 155.723 182.817 155.632 182.733 155.515ZM190.623 155.945L188.333 152.727C189.898 152.589 191.454 152.362 192.993 152.048L191.993 155.715C191.955 155.857 191.876 155.986 191.765 156.084C191.654 156.181 191.517 156.244 191.371 156.265C191.225 156.285 191.076 156.262 190.943 156.198C190.809 156.134 190.698 156.032 190.623 155.905V155.945ZM193.923 141.547C192.763 142.686 191.413 143.276 190.923 142.866C190.433 142.456 190.923 141.197 192.093 140.058C193.263 138.919 194.593 138.34 195.093 138.75C195.593 139.159 195.073 140.378 193.923 141.527V141.547ZM198.843 153.537L197.263 151.149C198.543 150.889 199.703 150.699 200.763 150.549L200.203 153.277C200.166 153.419 200.087 153.548 199.977 153.645C199.866 153.743 199.729 153.805 199.583 153.825C199.437 153.844 199.289 153.819 199.157 153.754C199.025 153.688 198.915 153.585 198.843 153.457V153.537ZM222.412 111.323C223.782 111.323 224.892 113.561 224.892 116.319C224.892 119.077 223.782 121.315 222.412 121.315C221.042 121.315 219.922 119.077 219.922 116.319C219.922 113.561 221.002 111.243 222.412 111.243V111.323ZM208.202 108.776C209.582 108.776 210.692 111.014 210.692 113.771C210.692 116.529 209.582 118.767 208.202 118.767C206.822 118.767 205.722 116.529 205.722 113.771C205.722 111.014 206.832 108.696 208.202 108.696V108.776ZM209.722 149.41L208.722 152.468C208.679 152.607 208.596 152.731 208.482 152.823C208.369 152.915 208.231 152.972 208.086 152.986C207.94 152.999 207.794 152.97 207.665 152.901C207.536 152.832 207.431 152.726 207.362 152.597L206.002 149.97C207.263 149.899 208.511 149.684 209.722 149.33V149.41ZM215.672 231.159C207.892 231.159 201.583 216.232 201.583 197.808C201.583 179.384 207.892 164.447 215.672 164.447C223.452 164.447 229.761 179.384 229.761 197.808C229.761 216.232 223.452 231.079 215.672 231.079V231.159Z" fill="#6AFF6C" stroke="#231F20" stroke-linecap="round" stroke-linejoin="round"/>
<path d="M215.672 142.956C213.572 146.952 211.912 148.601 209.722 149.33" stroke="#231F20" stroke-linecap="round" stroke-linejoin="round"/>
<path d="M200.763 150.519C202.822 150.25 204.512 150.14 205.962 150.02" stroke="#231F20" stroke-linecap="round" stroke-linejoin="round"/>
<path d="M193.003 152.008C193.743 151.868 194.503 151.698 195.293 151.508C196.083 151.319 196.643 151.189 197.293 151.069" stroke="#231F20" stroke-linecap="round" stroke-linejoin="round"/>
<path d="M184.673 152.807C185.894 152.834 187.116 152.794 188.333 152.687" stroke="#231F20" stroke-linecap="round" stroke-linejoin="round"/>
<path d="M180.423 152.288C179.498 152.087 178.594 151.799 177.723 151.428" stroke="#231F20" stroke-linecap="round" stroke-linejoin="round"/>
<path d="M214.192 141.927C214.192 141.927 217.362 140.668 218.422 143.835" stroke="#231F20" stroke-linecap="round" stroke-linejoin="round"/>
<path d="M211.732 105.708C211.732 105.708 207.472 103.011 203.792 108.925" stroke="#231F20" stroke-linecap="round" stroke-linejoin="round"/>
<path d="M227.252 110.494C227.252 110.494 224.332 104.989 219.252 108.576" stroke="#231F20" stroke-linecap="round" stroke-linejoin="round"/>
<path d="M357.567 195.64L382.756 186.098L352.997 203.873C356.477 196.509 359.477 189.815 361.397 184.889L382.216 169.033L357.317 195.24C357.29 195.282 357.275 195.33 357.275 195.38C357.274 195.429 357.288 195.478 357.314 195.52C357.34 195.562 357.378 195.596 357.423 195.617C357.468 195.638 357.518 195.646 357.567 195.64V195.64Z" fill="#008947" stroke="#231F20" stroke-linecap="round" stroke-linejoin="round"/>
<path d="M356.367 182.791C355.047 184.42 353.557 186.368 351.837 188.696C348.29 194.054 344.332 199.128 339.997 203.873L315.698 176.287L346.097 195.87C346.131 195.891 346.171 195.902 346.211 195.9C346.251 195.899 346.29 195.886 346.322 195.862C346.354 195.838 346.379 195.805 346.392 195.768C346.406 195.73 346.407 195.689 346.397 195.65L334.958 153.567L356.367 182.791Z" fill="#008947" stroke="#231F20" stroke-linecap="round" stroke-linejoin="round"/>
<path d="M233.921 174.269C231.221 190.644 241.071 227.402 254.761 227.852C268.45 228.302 252.691 191.014 249.471 174.269" stroke="black" stroke-linecap="round" stroke-linejoin="round"/>
<path d="M229.762 197.728C229.762 216.152 223.452 231.079 215.672 231.079C207.892 231.079 201.583 216.152 201.583 197.728C201.583 179.304 207.892 164.367 215.672 164.367C223.452 164.367 229.762 179.304 229.762 197.728Z" fill="#E6E7E8"/>
<path d="M209.722 149.33L208.722 152.498C208.679 152.627 208.599 152.741 208.491 152.825C208.384 152.91 208.254 152.961 208.118 152.972C207.982 152.984 207.846 152.956 207.726 152.891C207.606 152.826 207.507 152.728 207.442 152.607L206.002 149.97C207.263 149.899 208.511 149.684 209.722 149.33Z" fill="#F1F2F2" stroke="#231F20" stroke-width="0.5" stroke-linecap="round" stroke-linejoin="round"/>
<path d="M200.763 150.519L200.203 153.247C200.174 153.392 200.102 153.526 199.997 153.631C199.892 153.736 199.759 153.808 199.613 153.836C199.467 153.865 199.316 153.85 199.179 153.793C199.042 153.736 198.925 153.64 198.843 153.517L197.263 151.119C198.543 150.809 199.703 150.619 200.763 150.519Z" fill="#F1F2F2" stroke="#231F20" stroke-width="0.5" stroke-linecap="round" stroke-linejoin="round"/>
<path d="M193.003 152.008L192.003 155.675C191.965 155.811 191.89 155.933 191.786 156.028C191.681 156.123 191.552 156.187 191.413 156.212C191.274 156.237 191.131 156.223 191 156.17C190.869 156.117 190.756 156.029 190.673 155.915L188.373 152.687C189.928 152.548 191.474 152.321 193.003 152.008V152.008Z" fill="#F1F2F2" stroke="#231F20" stroke-width="0.5" stroke-linecap="round" stroke-linejoin="round"/>
<path d="M184.673 152.807L184.073 155.235C184.037 155.372 183.962 155.495 183.859 155.592C183.755 155.688 183.626 155.753 183.487 155.779C183.348 155.805 183.204 155.791 183.073 155.739C182.941 155.687 182.827 155.599 182.743 155.485L180.423 152.288C181.82 152.598 183.243 152.772 184.673 152.807Z" fill="#F1F2F2" stroke="#231F20" stroke-width="0.5" stroke-linecap="round" stroke-linejoin="round"/>
<path d="M184.673 152.807V152.797" stroke="#231F20" stroke-miterlimit="10"/>
<path d="M187.563 155.855C187.803 154.306 189.923 153.357 191.353 153.627C192.273 153.796 192.353 154.356 193.563 154.626C194.923 154.875 195.683 154.296 195.953 154.626C196.223 154.955 195.403 156.624 194.163 157.623C193.853 157.873 191.273 159.851 189.163 158.622C188.662 158.359 188.246 157.959 187.963 157.469C187.68 156.98 187.541 156.42 187.563 155.855V155.855Z" fill="#86E7E8" stroke="black" stroke-width="0.39" stroke-linejoin="round"/>
<path d="M202.792 160.94C202.794 161.147 202.754 161.352 202.676 161.544C202.598 161.735 202.482 161.909 202.336 162.056C202.19 162.203 202.017 162.319 201.826 162.398C201.634 162.478 201.43 162.519 201.223 162.519H161.564C161.168 162.487 160.798 162.308 160.529 162.016C160.259 161.725 160.11 161.342 160.11 160.945C160.11 160.548 160.259 160.166 160.529 159.874C160.798 159.583 161.168 159.403 161.564 159.372H201.223C201.639 159.372 202.038 159.537 202.333 159.831C202.627 160.125 202.792 160.524 202.792 160.94V160.94Z" fill="#27AAE1" stroke="black" stroke-width="0.39" stroke-linejoin="round"/>
<path d="M200.543 159.372H191.773L188.313 156.084C189.064 155.86 189.871 155.917 190.583 156.244C192.123 156.784 191.773 155.965 191.773 155.965C191.773 155.965 191.393 155.625 192.353 155.665C193.313 155.705 193.353 155.895 193.353 155.895C193.353 155.895 194.193 156.584 194.573 156.154C194.953 155.725 196.143 155.885 197.043 156.084L200.543 159.372Z" fill="#FFF5EE" stroke="black" stroke-width="0.39" stroke-linejoin="round"/>
<path d="M193.293 158.862C193.187 158.657 193.028 158.485 192.833 158.362C192.323 157.983 191.833 157.623 191.263 157.273C191.085 157.145 190.885 157.05 190.673 156.994" stroke="black" stroke-width="0.39" stroke-linejoin="round"/>
<path d="M194.463 158.922C194.239 158.642 193.987 158.384 193.713 158.153C193.453 157.967 193.215 157.752 193.003 157.513C192.891 157.391 192.812 157.243 192.772 157.083C192.732 156.922 192.732 156.754 192.773 156.594" stroke="black" stroke-width="0.39" stroke-linejoin="round"/>
<path d="M195.823 158.732C195.716 158.434 195.582 158.146 195.423 157.873C195.352 157.733 195.264 157.603 195.163 157.483C194.843 157.16 194.457 156.908 194.033 156.744" stroke="black" stroke-width="0.39" stroke-linejoin="round"/>
<path d="M197.533 158.912C197.02 158.559 196.576 158.116 196.223 157.603C196.036 157.376 195.947 157.086 195.973 156.794" stroke="black" stroke-width="0.39" stroke-linejoin="round"/>
<path d="M198.743 159.022C198.645 158.586 198.415 158.192 198.083 157.893L196.763 156.434" stroke="black" stroke-width="0.39" stroke-linejoin="round"/>
<path d="M384.696 127.07H359.167" stroke="black" stroke-linejoin="round"/>
<path d="M359.167 116.249V127.07" stroke="black" stroke-linejoin="round"/>
<path d="M359.167 118.747C359.167 118.747 368.106 118.057 367.276 127.07" stroke="black" stroke-width="0.76" stroke-linejoin="round"/>
<path d="M364.067 119.806L367.336 115.48" stroke="black" stroke-width="0.76" stroke-linejoin="round"/>
<path d="M368.916 119.866L364.067 119.806" stroke="black" stroke-width="0.76" stroke-linejoin="round"/>
<path d="M289.519 120.545C289.519 122.304 286.159 123.743 282.009 123.743C277.86 123.743 274.49 122.304 274.49 120.545C274.49 118.787 277.86 117.348 282.009 117.348C286.159 117.348 289.519 118.787 289.519 120.545Z" fill="#A7A9AC" stroke="black" stroke-width="0.5" stroke-linejoin="round"/>
<path d="M289.519 120.545V123.743C289.519 125.511 286.159 126.94 282.009 126.94C277.86 126.94 274.49 125.511 274.49 123.743V120.545C274.49 122.304 277.86 123.743 282.009 123.743C286.159 123.743 289.519 122.314 289.519 120.545Z" fill="#A7A9AC" stroke="black" stroke-width="0.5" stroke-linejoin="round"/>
<path d="M434.624 241.45L435.824 248.005H349.577L351.817 241.63L374.686 241.58V233.587H384.696V80.1004L384.886 79.1013L385.226 77.2929L268.5 89.5622L267.67 81.739L343.467 73.7659L386.766 69.2199L388.106 62.206L391.035 46.7993H391.046L391.515 44.3015L391.975 46.7294L394.925 62.206L396.075 68.2407L432.464 64.4141L449.843 62.5756L450.663 70.4188L397.555 76.014L398.145 79.1013L398.335 80.1004V233.587H408.345V241.51L434.624 241.45Z" fill="#A7A9AC" stroke="black" stroke-width="0.5" stroke-linejoin="round"/>
<path d="M398.335 79.1013V80.1004L398.145 79.1013H398.335Z" fill="#A7A9AC" stroke="black" stroke-width="0.5" stroke-linejoin="round"/>
<path d="M391.036 46.8093L343.467 73.7659" stroke="black" stroke-width="0.5" stroke-linejoin="round"/>
<path d="M391.975 46.7394L432.464 64.414" stroke="black" stroke-width="0.5" stroke-linejoin="round"/>
<path d="M282.01 120.565V88.1434" stroke="black" stroke-width="0.5" stroke-linejoin="round"/>
<path d="M306.219 213.435L335.768 288.15" stroke="#231F20" stroke-width="0.5" stroke-miterlimit="10"/>
<path d="M315.018 209.958L344.557 284.673" stroke="#231F20" stroke-width="0.5" stroke-miterlimit="10"/>
<path d="M323.758 257.776L332.478 254.119" stroke="#231F20" stroke-width="0.5" stroke-miterlimit="10"/>
<path d="M328.898 270.765L337.627 267.158" stroke="#231F20" stroke-width="0.5" stroke-miterlimit="10"/>
<path d="M317.918 243.009L326.728 239.572" stroke="#231F20" stroke-width="0.5" stroke-miterlimit="10"/>
<path d="M314.438 234.207L323.368 231.099" stroke="#231F20" stroke-width="0.5" stroke-miterlimit="10"/>
<path d="M311.778 227.482L320.728 224.425" stroke="#231F20" stroke-width="0.5" stroke-miterlimit="10"/>
<path d="M309.029 220.528L318.018 217.551" stroke="#231F20" stroke-width="0.5" stroke-miterlimit="10"/>
<path d="M332.088 278.858L340.707 274.931" stroke="#231F20" stroke-width="0.5" stroke-miterlimit="10"/>
<path d="M325.908 263.211L334.748 259.874" stroke="#231F20" stroke-width="0.5" stroke-miterlimit="10"/>
<path d="M320.458 249.433L329.308 246.106" stroke="#231F20" stroke-width="0.5" stroke-miterlimit="10"/>
<path d="M112.926 224.515L91.1565 279.587" stroke="#231F20" stroke-width="0.5" stroke-miterlimit="10"/>
<path d="M106.446 221.957L84.6768 277.029" stroke="#231F20" stroke-width="0.5" stroke-miterlimit="10"/>
<path d="M100.006 257.207L93.5764 254.509" stroke="#231F20" stroke-width="0.5" stroke-miterlimit="10"/>
<path d="M96.2164 266.778L89.7766 264.111" stroke="#231F20" stroke-width="0.5" stroke-miterlimit="10"/>
<path d="M104.306 246.316L97.8162 243.788" stroke="#231F20" stroke-width="0.5" stroke-miterlimit="10"/>
<path d="M106.876 239.832L100.286 237.534" stroke="#231F20" stroke-width="0.5" stroke-miterlimit="10"/>
<path d="M108.836 234.876L102.236 232.618" stroke="#231F20" stroke-width="0.5" stroke-miterlimit="10"/>
<path d="M110.856 229.751L104.236 227.552" stroke="#231F20" stroke-width="0.5" stroke-miterlimit="10"/>
<path d="M93.8564 272.733L87.5166 269.846" stroke="#231F20" stroke-width="0.5" stroke-miterlimit="10"/>
<path d="M98.4162 261.203L91.8965 258.745" stroke="#231F20" stroke-width="0.5" stroke-miterlimit="10"/>
<path d="M102.436 251.052L95.9163 248.594" stroke="#231F20" stroke-width="0.5" stroke-miterlimit="10"/>
<path d="M131.555 177.446L109.786 232.508" stroke="#231F20" stroke-width="0.5" stroke-miterlimit="10"/>
<path d="M125.075 174.888L103.306 229.95" stroke="#231F20" stroke-width="0.5" stroke-miterlimit="10"/>
<path d="M118.636 210.128L112.206 207.43" stroke="#231F20" stroke-width="0.5" stroke-miterlimit="10"/>
<path d="M114.846 219.699L108.406 217.042" stroke="#231F20" stroke-width="0.5" stroke-miterlimit="10"/>
<path d="M122.936 199.247L116.446 196.719" stroke="#231F20" stroke-width="0.5" stroke-miterlimit="10"/>
<path d="M125.505 192.753L118.916 190.465" stroke="#231F20" stroke-width="0.5" stroke-miterlimit="10"/>
<path d="M127.465 187.797L120.865 185.549" stroke="#231F20" stroke-width="0.5" stroke-miterlimit="10"/>
<path d="M129.485 182.681L122.865 180.483" stroke="#231F20" stroke-width="0.5" stroke-miterlimit="10"/>
<path d="M112.486 225.664L106.146 222.767" stroke="#231F20" stroke-width="0.5" stroke-miterlimit="10"/>
<path d="M117.046 214.134L110.526 211.676" stroke="#231F20" stroke-width="0.5" stroke-miterlimit="10"/>
<path d="M121.065 203.983L114.546 201.525" stroke="#231F20" stroke-width="0.5" stroke-miterlimit="10"/>
<path d="M153.694 153.976L154.834 153.886L159.244 153.567L163.454 153.227L164.794 153.117C164.632 151.684 163.92 150.369 162.807 149.45C161.695 148.531 160.268 148.08 158.829 148.191C157.389 148.302 156.05 148.968 155.092 150.047C154.134 151.126 153.633 152.535 153.694 153.976V153.976Z" fill="#F4EA61" stroke="black" stroke-width="0.18" stroke-linejoin="round"/>
<path d="M154.824 154.066C154.796 154.655 154.888 155.244 155.094 155.796C155.3 156.349 155.616 156.854 156.023 157.28C156.43 157.707 156.92 158.047 157.462 158.279C158.005 158.511 158.589 158.631 159.179 158.631C159.769 158.631 160.353 158.511 160.896 158.279C161.438 158.047 161.928 157.707 162.335 157.28C162.742 156.854 163.058 156.349 163.264 155.796C163.47 155.244 163.562 154.655 163.534 154.066C163.538 153.784 163.511 153.503 163.454 153.227L159.244 153.567L154.834 153.886C154.826 153.946 154.823 154.006 154.824 154.066V154.066Z" stroke="black" stroke-width="0.29" stroke-linejoin="round"/>
<path d="M160.764 156.134C160.902 156.134 161.014 155.718 161.014 155.205C161.014 154.692 160.902 154.276 160.764 154.276C160.626 154.276 160.514 154.692 160.514 155.205C160.514 155.718 160.626 156.134 160.764 156.134Z" fill="black" stroke="black" stroke-width="0.17" stroke-linejoin="round"/>
<path d="M162.504 155.515C162.642 155.515 162.754 155.099 162.754 154.586C162.754 154.073 162.642 153.657 162.504 153.657C162.366 153.657 162.254 154.073 162.254 154.586C162.254 155.099 162.366 155.515 162.504 155.515Z" fill="black" stroke="black" stroke-width="0.17" stroke-linejoin="round"/>
<path d="M159.244 169.413L159.184 158.422" stroke="black" stroke-width="0.17" stroke-linejoin="round"/>
<path d="M159.244 169.413L161.494 172.24" stroke="black" stroke-width="0.17" stroke-linejoin="round"/>
<path d="M156.244 172.24L159.244 169.413" stroke="black" stroke-width="0.17" stroke-linejoin="round"/>
<path d="M377.476 108.805L376.336 108.726L371.926 108.406L367.716 108.066L366.376 107.956C366.539 106.525 367.251 105.212 368.363 104.295C369.474 103.377 370.898 102.926 372.336 103.036C373.774 103.146 375.112 103.808 376.071 104.884C377.03 105.96 377.533 107.366 377.476 108.805V108.805Z" fill="#F4EA61" stroke="black" stroke-width="0.18" stroke-linejoin="round"/>
<path d="M376.346 108.905C376.374 109.494 376.283 110.083 376.076 110.635C375.87 111.188 375.554 111.693 375.147 112.12C374.74 112.546 374.25 112.886 373.708 113.118C373.165 113.351 372.581 113.47 371.991 113.47C371.401 113.47 370.817 113.351 370.275 113.118C369.732 112.886 369.243 112.546 368.835 112.12C368.428 111.693 368.112 111.188 367.906 110.635C367.7 110.083 367.608 109.494 367.636 108.905C367.632 108.624 367.659 108.342 367.716 108.066L371.926 108.406L376.336 108.726C376.344 108.785 376.348 108.845 376.346 108.905Z" stroke="black" stroke-width="0.29" stroke-linejoin="round"/>
<path d="M370.406 110.974C370.544 110.974 370.656 110.558 370.656 110.044C370.656 109.531 370.544 109.115 370.406 109.115C370.268 109.115 370.156 109.531 370.156 110.044C370.156 110.558 370.268 110.974 370.406 110.974Z" fill="black" stroke="black" stroke-width="0.17" stroke-linejoin="round"/>
<path d="M368.666 110.344C368.804 110.344 368.916 109.928 368.916 109.415C368.916 108.902 368.804 108.486 368.666 108.486C368.528 108.486 368.416 108.902 368.416 109.415C368.416 109.928 368.528 110.344 368.666 110.344Z" fill="black" stroke="black" stroke-width="0.17" stroke-linejoin="round"/>
<path d="M371.926 124.242L371.986 113.262" stroke="black" stroke-width="0.17" stroke-linejoin="round"/>
<path d="M371.926 115.05L370.156 119.107" stroke="black" stroke-width="0.17" stroke-linejoin="round"/>
<path d="M374.266 118.917L371.926 115.05" stroke="black" stroke-width="0.17" stroke-linejoin="round"/>
<path d="M371.926 124.242L369.676 127.07" stroke="black" stroke-width="0.17" stroke-linejoin="round"/>
<path d="M374.926 127.07L371.926 124.242" stroke="black" stroke-width="0.17" stroke-linejoin="round"/>
<path d="M161.594 164.617L159.144 162.359" stroke="black" stroke-width="0.17" stroke-linecap="round" stroke-linejoin="round"/>
<path d="M164.394 161.69L161.594 164.617" stroke="black" stroke-width="0.17" stroke-linecap="round" stroke-linejoin="round"/>
<path d="M161.674 163.308L159.214 161.889" stroke="black" stroke-width="0.17" stroke-linecap="round" stroke-linejoin="round"/>
<path d="M163.034 162.529L161.674 163.308" stroke="black" stroke-width="0.17" stroke-linecap="round" stroke-linejoin="round"/>
<path d="M367.636 115.799C368.034 115.799 368.356 115.477 368.356 115.08C368.356 114.683 368.034 114.361 367.636 114.361C367.239 114.361 366.916 114.683 366.916 115.08C366.916 115.477 367.239 115.799 367.636 115.799Z" fill="black" stroke="black" stroke-width="0.17" stroke-linecap="round" stroke-linejoin="round"/>
<path d="M369.126 120.475C369.524 120.475 369.846 120.153 369.846 119.756C369.846 119.359 369.524 119.037 369.126 119.037C368.729 119.037 368.406 119.359 368.406 119.756C368.406 120.153 368.729 120.475 369.126 120.475Z" fill="black" stroke="black" stroke-width="0.17" stroke-linecap="round" stroke-linejoin="round"/>
<path d="M315.648 269.286C315.638 269.394 315.603 269.498 315.546 269.59C315.488 269.682 315.411 269.759 315.318 269.816C314.182 270.329 312.95 270.595 311.703 270.595C310.457 270.595 309.224 270.329 308.089 269.816C307.996 269.759 307.918 269.682 307.861 269.59C307.804 269.498 307.769 269.394 307.759 269.286C307.759 268.567 309.528 267.977 311.708 267.977C313.888 267.977 315.648 268.567 315.648 269.286Z" fill="#BCBEC0" stroke="#231F20" stroke-width="0.5" stroke-linecap="round" stroke-linejoin="round"/>
<path d="M315.318 269.816C314.182 270.329 312.95 270.595 311.703 270.595C310.457 270.595 309.224 270.329 308.089 269.816C309.224 269.302 310.457 269.037 311.703 269.037C312.95 269.037 314.182 269.302 315.318 269.816Z" fill="#008947" stroke="#231F20" stroke-width="0.5" stroke-linecap="round" stroke-linejoin="round"/>
<path d="M315.648 269.286V276.1C315.648 276.82 313.878 277.409 311.708 277.409C309.538 277.409 307.759 276.82 307.759 276.1V269.286C307.769 269.394 307.804 269.498 307.861 269.59C307.918 269.682 307.996 269.759 308.089 269.816C309.224 270.329 310.457 270.595 311.703 270.595C312.95 270.595 314.182 270.329 315.318 269.816C315.411 269.759 315.488 269.682 315.546 269.59C315.603 269.498 315.638 269.394 315.648 269.286V269.286Z" fill="#BCBEC0" stroke="#231F20" stroke-width="0.5" stroke-linecap="round" stroke-linejoin="round"/>
<path d="M322.668 272.813L319.518 275.97C319.465 276.019 319.395 276.046 319.323 276.046C319.251 276.046 319.182 276.019 319.128 275.97L318.728 275.561C318.702 275.536 318.681 275.507 318.667 275.474C318.653 275.442 318.646 275.406 318.646 275.371C318.646 275.335 318.653 275.3 318.667 275.267C318.681 275.235 318.702 275.205 318.728 275.181L319.978 273.922L317.398 271.344C317.339 271.284 317.306 271.204 317.306 271.12C317.306 271.035 317.339 270.955 317.398 270.895L317.608 270.695C317.669 270.638 317.75 270.606 317.833 270.606C317.917 270.606 317.997 270.638 318.058 270.695L320.638 273.273L321.888 272.024C321.941 271.975 322.011 271.948 322.083 271.948C322.155 271.948 322.225 271.975 322.278 272.024L322.678 272.433C322.703 272.458 322.723 272.488 322.737 272.521C322.75 272.554 322.756 272.59 322.756 272.625C322.755 272.661 322.746 272.696 322.731 272.728C322.716 272.761 322.695 272.789 322.668 272.813V272.813Z" fill="#550900" stroke="#231F20" stroke-width="0.5" stroke-linecap="round" stroke-linejoin="round"/>
<path d="M324.528 275.341L321.998 277.829C321.959 277.875 321.911 277.913 321.857 277.94C321.803 277.967 321.744 277.984 321.683 277.989C321.623 277.993 321.562 277.986 321.505 277.967C321.447 277.948 321.394 277.918 321.348 277.879L319.448 275.99L322.648 272.803L324.538 274.691C324.623 274.779 324.669 274.896 324.667 275.018C324.666 275.14 324.615 275.256 324.528 275.341V275.341Z" fill="black" stroke="#231F20" stroke-width="0.5" stroke-linecap="round" stroke-linejoin="round"/>
</svg>
