<?xml version="1.0" encoding="utf-8"?>
<!-- Generator: Adobe Illustrator 26.0.2, SVG Export Plug-In . SVG Version: 6.00 Build 0)  -->
<svg version="1.1" id="Layer_1" xmlns="http://www.w3.org/2000/svg" xmlns:xlink="http://www.w3.org/1999/xlink" x="0px" y="0px"
	 viewBox="0 0 30 30" style="enable-background:new 0 0 30 30;" xml:space="preserve">
<style type="text/css">
	.st0{fill-rule:evenodd;clip-rule:evenodd;fill:#1C2541;}
</style>
<path class="st0" d="M15,0.7l0.8,0.5l13.1,8.1l0.7,0.4v0.8v16.2v1.5h-1.5H1.9H0.4v-1.5V10.6V9.8l0.7-0.4l13.1-8.1L15,0.7z M3.4,13.7
	l6.1,4.7l-6.1,5.2V13.7z M5.9,25.4h18.1l-6.9-5.9L15,17.6l-2.1,1.8L5.9,25.4z M26.6,23.6l-6.1-5.2l6.1-4.7V23.6z M25.5,10.8L15,4.3
	L4.5,10.8l7.3,5.6l2.2-1.9l1-0.8l1,0.8l2.2,1.9L25.5,10.8z"/>
</svg>
