<svg width="400" height="250" viewBox="0 0 400 250" fill="none" xmlns="http://www.w3.org/2000/svg">
<path d="M0 20C0 8.9543 8.95431 0 20 0H380C391.046 0 400 8.95431 400 20V230C400 241.046 391.046 250 380 250H20C8.95431 250 0 241.046 0 230V20Z" fill="#C4C4C4"/>
<path d="M46.1473 48.5447V54.1111H44.2723V39.8923H49.5164C51.0724 39.8923 52.2898 40.2895 53.1687 41.0837C54.0542 41.878 54.4969 42.9294 54.4969 44.238C54.4969 45.6182 54.0639 46.6827 53.198 47.4314C52.3387 48.1736 51.1049 48.5447 49.4969 48.5447H46.1473ZM46.1473 47.0115H49.5164C50.519 47.0115 51.2872 46.7771 51.8211 46.3083C52.3549 45.8331 52.6219 45.1495 52.6219 44.2576C52.6219 43.4112 52.3549 42.7341 51.8211 42.2263C51.2872 41.7185 50.5548 41.4548 49.6238 41.4353H46.1473V47.0115ZM61.7137 45.1658C61.4402 45.1202 61.144 45.0974 60.825 45.0974C59.6401 45.0974 58.8361 45.602 58.4129 46.6111V54.1111H56.6062V43.5447H58.3641L58.3934 44.7654C58.9858 43.8214 59.8256 43.3494 60.9129 43.3494C61.2644 43.3494 61.5314 43.3949 61.7137 43.4861V45.1658ZM62.7098 48.7302C62.7098 47.6951 62.9116 46.7641 63.3152 45.9373C63.7254 45.1104 64.2918 44.4724 65.0144 44.0232C65.7436 43.574 66.5737 43.3494 67.5047 43.3494C68.9435 43.3494 70.1056 43.8474 70.991 44.8435C71.8829 45.8396 72.3289 47.1645 72.3289 48.8181V48.9451C72.3289 49.9737 72.1303 50.8982 71.7332 51.7185C71.3426 52.5323 70.7794 53.1671 70.0437 53.6228C69.3146 54.0785 68.4747 54.3064 67.5242 54.3064C66.0919 54.3064 64.9298 53.8083 64.0379 52.8123C63.1525 51.8162 62.7098 50.4978 62.7098 48.8572V48.7302ZM64.5262 48.9451C64.5262 50.1169 64.7963 51.0577 65.3367 51.7673C65.8836 52.477 66.6128 52.8318 67.5242 52.8318C68.4422 52.8318 69.1713 52.4737 69.7117 51.7576C70.2521 51.0349 70.5223 50.0258 70.5223 48.7302C70.5223 47.5714 70.2456 46.6339 69.6922 45.9177C69.1453 45.1951 68.4161 44.8337 67.5047 44.8337C66.6128 44.8337 65.8934 45.1886 65.3465 45.8982C64.7996 46.6078 64.5262 47.6235 64.5262 48.9451ZM76.4598 43.5447V55.3318C76.4598 57.363 75.5385 58.3787 73.6961 58.3787C73.299 58.3787 72.9311 58.3201 72.5926 58.2029V56.7576C72.8009 56.8097 73.0743 56.8357 73.4129 56.8357C73.8165 56.8357 74.1225 56.725 74.3309 56.5037C74.5457 56.2888 74.6531 55.9112 74.6531 55.3708V43.5447H76.4598ZM74.4676 40.7419C74.4676 40.4555 74.5555 40.2113 74.7312 40.0095C74.9135 39.8012 75.1772 39.697 75.5223 39.697C75.8738 39.697 76.1407 39.7979 76.323 39.9998C76.5053 40.2016 76.5965 40.449 76.5965 40.7419C76.5965 41.0349 76.5053 41.2791 76.323 41.4744C76.1407 41.6697 75.8738 41.7673 75.5223 41.7673C75.1707 41.7673 74.907 41.6697 74.7312 41.4744C74.5555 41.2791 74.4676 41.0349 74.4676 40.7419ZM83.7644 54.3064C82.3322 54.3064 81.1668 53.8376 80.2684 52.9001C79.3699 51.9561 78.9207 50.6964 78.9207 49.1208V48.7888C78.9207 47.7406 79.1193 46.8064 79.5164 45.9861C79.92 45.1593 80.4799 44.5147 81.1961 44.0525C81.9187 43.5837 82.7 43.3494 83.5398 43.3494C84.9135 43.3494 85.9812 43.8018 86.743 44.7068C87.5047 45.6117 87.8855 46.9073 87.8855 48.5935V49.3455H80.7273C80.7534 50.3871 81.0561 51.2302 81.6355 51.8748C82.2215 52.5128 82.9637 52.8318 83.8621 52.8318C84.5001 52.8318 85.0405 52.7016 85.4832 52.4412C85.9259 52.1807 86.3133 51.8357 86.6453 51.406L87.7488 52.2654C86.8634 53.6261 85.5353 54.3064 83.7644 54.3064ZM83.5398 44.8337C82.8107 44.8337 82.1987 45.1007 81.7039 45.6345C81.2091 46.1619 80.9031 46.9041 80.7859 47.8611H86.0789V47.7244C86.0268 46.8064 85.7794 46.0968 85.3367 45.5955C84.894 45.0876 84.295 44.8337 83.5398 44.8337ZM94.2234 52.8318C94.868 52.8318 95.4311 52.6365 95.9129 52.2458C96.3947 51.8552 96.6616 51.3669 96.7137 50.781H98.4227C98.3901 51.3865 98.1818 51.9626 97.7977 52.5095C97.4135 53.0564 96.8992 53.4926 96.2547 53.8181C95.6167 54.1436 94.9396 54.3064 94.2234 54.3064C92.7846 54.3064 91.6388 53.8279 90.7859 52.8708C89.9396 51.9073 89.5164 50.5922 89.5164 48.9255V48.6228C89.5164 47.5942 89.7052 46.6794 90.0828 45.8787C90.4604 45.0779 91.0008 44.4561 91.7039 44.0134C92.4135 43.5707 93.2501 43.3494 94.2137 43.3494C95.3986 43.3494 96.3816 43.7042 97.1629 44.4138C97.9506 45.1235 98.3706 46.0447 98.4227 47.1775H96.7137C96.6616 46.4939 96.4012 45.934 95.9324 45.4978C95.4702 45.0551 94.8973 44.8337 94.2137 44.8337C93.2957 44.8337 92.5828 45.1658 92.075 45.8298C91.5737 46.4874 91.323 47.4412 91.323 48.6912V49.033C91.323 50.2504 91.5737 51.1879 92.075 51.8455C92.5763 52.503 93.2924 52.8318 94.2234 52.8318ZM102.905 40.9861V43.5447H104.878V44.9412H102.905V51.4939C102.905 51.9171 102.993 52.2361 103.169 52.4509C103.345 52.6593 103.644 52.7634 104.067 52.7634C104.276 52.7634 104.562 52.7244 104.927 52.6462V54.1111C104.451 54.2413 103.989 54.3064 103.54 54.3064C102.733 54.3064 102.124 54.0623 101.714 53.574C101.304 53.0857 101.098 52.3923 101.098 51.4939V44.9412H99.1746V43.5447H101.098V40.9861H102.905Z" fill="black"/>
<path d="M158.822 219.02C158.822 220.628 158.454 221.923 157.719 222.906C156.983 223.889 155.987 224.381 154.73 224.381C153.448 224.381 152.439 223.974 151.703 223.16V228.248H149.896V213.619H151.547L151.635 214.791C152.37 213.88 153.393 213.424 154.701 213.424C155.971 213.424 156.973 213.902 157.709 214.859C158.451 215.816 158.822 217.148 158.822 218.854V219.02ZM157.016 218.814C157.016 217.623 156.762 216.682 156.254 215.992C155.746 215.302 155.049 214.957 154.164 214.957C153.07 214.957 152.25 215.442 151.703 216.412V221.461C152.244 222.424 153.07 222.906 154.184 222.906C155.049 222.906 155.736 222.564 156.244 221.881C156.758 221.191 157.016 220.169 157.016 218.814ZM166.234 215.24C165.961 215.195 165.665 215.172 165.346 215.172C164.161 215.172 163.357 215.676 162.934 216.686V224.186H161.127V213.619H162.885L162.914 214.84C163.507 213.896 164.346 213.424 165.434 213.424C165.785 213.424 166.052 213.469 166.234 213.561V215.24ZM167.23 218.805C167.23 217.77 167.432 216.839 167.836 216.012C168.246 215.185 168.813 214.547 169.535 214.098C170.264 213.648 171.094 213.424 172.025 213.424C173.464 213.424 174.626 213.922 175.512 214.918C176.404 215.914 176.85 217.239 176.85 218.893V219.02C176.85 220.048 176.651 220.973 176.254 221.793C175.863 222.607 175.3 223.242 174.564 223.697C173.835 224.153 172.995 224.381 172.045 224.381C170.613 224.381 169.451 223.883 168.559 222.887C167.673 221.891 167.23 220.572 167.23 218.932V218.805ZM169.047 219.02C169.047 220.191 169.317 221.132 169.857 221.842C170.404 222.551 171.133 222.906 172.045 222.906C172.963 222.906 173.692 222.548 174.232 221.832C174.773 221.109 175.043 220.1 175.043 218.805C175.043 217.646 174.766 216.708 174.213 215.992C173.666 215.27 172.937 214.908 172.025 214.908C171.133 214.908 170.414 215.263 169.867 215.973C169.32 216.682 169.047 217.698 169.047 219.02ZM180.98 213.619V225.406C180.98 227.438 180.059 228.453 178.217 228.453C177.82 228.453 177.452 228.395 177.113 228.277V226.832C177.322 226.884 177.595 226.91 177.934 226.91C178.337 226.91 178.643 226.799 178.852 226.578C179.066 226.363 179.174 225.986 179.174 225.445V213.619H180.98ZM178.988 210.816C178.988 210.53 179.076 210.286 179.252 210.084C179.434 209.876 179.698 209.771 180.043 209.771C180.395 209.771 180.661 209.872 180.844 210.074C181.026 210.276 181.117 210.523 181.117 210.816C181.117 211.109 181.026 211.354 180.844 211.549C180.661 211.744 180.395 211.842 180.043 211.842C179.691 211.842 179.428 211.744 179.252 211.549C179.076 211.354 178.988 211.109 178.988 210.816ZM188.285 224.381C186.853 224.381 185.688 223.912 184.789 222.975C183.891 222.031 183.441 220.771 183.441 219.195V218.863C183.441 217.815 183.64 216.881 184.037 216.061C184.441 215.234 185.001 214.589 185.717 214.127C186.439 213.658 187.221 213.424 188.061 213.424C189.434 213.424 190.502 213.876 191.264 214.781C192.025 215.686 192.406 216.982 192.406 218.668V219.42H185.248C185.274 220.462 185.577 221.305 186.156 221.949C186.742 222.587 187.484 222.906 188.383 222.906C189.021 222.906 189.561 222.776 190.004 222.516C190.447 222.255 190.834 221.91 191.166 221.48L192.27 222.34C191.384 223.701 190.056 224.381 188.285 224.381ZM188.061 214.908C187.331 214.908 186.719 215.175 186.225 215.709C185.73 216.236 185.424 216.979 185.307 217.936H190.6V217.799C190.548 216.881 190.3 216.171 189.857 215.67C189.415 215.162 188.816 214.908 188.061 214.908ZM198.744 222.906C199.389 222.906 199.952 222.711 200.434 222.32C200.915 221.93 201.182 221.441 201.234 220.855H202.943C202.911 221.461 202.702 222.037 202.318 222.584C201.934 223.131 201.42 223.567 200.775 223.893C200.137 224.218 199.46 224.381 198.744 224.381C197.305 224.381 196.16 223.902 195.307 222.945C194.46 221.982 194.037 220.667 194.037 219V218.697C194.037 217.669 194.226 216.754 194.604 215.953C194.981 215.152 195.521 214.531 196.225 214.088C196.934 213.645 197.771 213.424 198.734 213.424C199.919 213.424 200.902 213.779 201.684 214.488C202.471 215.198 202.891 216.119 202.943 217.252H201.234C201.182 216.568 200.922 216.008 200.453 215.572C199.991 215.13 199.418 214.908 198.734 214.908C197.816 214.908 197.104 215.24 196.596 215.904C196.094 216.562 195.844 217.516 195.844 218.766V219.107C195.844 220.325 196.094 221.262 196.596 221.92C197.097 222.577 197.813 222.906 198.744 222.906ZM207.426 211.061V213.619H209.398V215.016H207.426V221.568C207.426 221.992 207.514 222.311 207.689 222.525C207.865 222.734 208.165 222.838 208.588 222.838C208.796 222.838 209.083 222.799 209.447 222.721V224.186C208.972 224.316 208.51 224.381 208.061 224.381C207.253 224.381 206.645 224.137 206.234 223.648C205.824 223.16 205.619 222.467 205.619 221.568V215.016H203.695V213.619H205.619V211.061H207.426ZM219.135 225.66H210.189V224.186H219.135V225.66ZM222.504 224.186H220.697V209.186H222.504V224.186ZM227.367 224.186H225.561V213.619H227.367V224.186ZM225.414 210.816C225.414 210.523 225.502 210.276 225.678 210.074C225.86 209.872 226.127 209.771 226.479 209.771C226.83 209.771 227.097 209.872 227.279 210.074C227.462 210.276 227.553 210.523 227.553 210.816C227.553 211.109 227.462 211.354 227.279 211.549C227.097 211.744 226.83 211.842 226.479 211.842C226.127 211.842 225.86 211.744 225.678 211.549C225.502 211.354 225.414 211.109 225.414 210.816ZM231.977 213.619L232.035 214.947C232.842 213.932 233.897 213.424 235.199 213.424C237.432 213.424 238.559 214.684 238.578 217.203V224.186H236.771V217.193C236.765 216.432 236.589 215.868 236.244 215.504C235.906 215.139 235.375 214.957 234.652 214.957C234.066 214.957 233.552 215.113 233.109 215.426C232.667 215.738 232.322 216.148 232.074 216.656V224.186H230.268V213.619H231.977ZM244.252 219.293L243.119 220.475V224.186H241.313V209.186H243.119V218.258L244.086 217.096L247.377 213.619H249.574L245.463 218.033L250.053 224.186H247.934L244.252 219.293Z" fill="#028FBB"/>
<path d="M148.529 226.139H250.072V227.115H148.529V226.139Z" fill="#028FBB"/>
</svg>
