<svg width="188" height="97" viewBox="0 0 188 97" fill="none" xmlns="http://www.w3.org/2000/svg">
<path d="M167.6 0H20C8.95431 0 0 8.9543 0 20V76.5C0 87.5457 8.95429 96.5 20 96.5H167.6C178.646 96.5 187.6 87.5457 187.6 76.5V20C187.6 8.95431 178.646 0 167.6 0Z" fill="#002852"/>
<path d="M34.8001 71.9001L31.3001 80.6001H29.6001L40.7001 53.3L51.7001 80.6001H50.0001L46.5001 71.9001H34.8001ZM40.6001 57.6001L35.4001 70.4001H45.7001L40.6001 57.6001Z" fill="#F8F8F9"/>
<path d="M56.3001 79.1001H63.1001V80.6001H54.6001V54.2001H56.3001V79.1001Z" fill="#F8F8F9"/>
<path d="M82.1 54.2H83.8V70.7C83.8 73.4 83.8001 75.7 82.0001 77.9C80.2001 79.9 77.5 81 74.8 81C72.1 81 69.4 79.9 67.6 77.9C65.8 75.7 65.8 73.4 65.8 70.7V54.2H67.5001V70.2C67.5001 72.6 67.5001 75.1 68.9001 76.9C70.2001 78.6 72.8 79.5 74.8 79.5C76.8 79.5 79.4001 78.6 80.7001 76.9C82.1001 75.1 82.1 72.6 82.1 70.2V54.2Z" fill="#F8F8F9"/>
<path d="M111.4 58.8H111.3L102.1 81.5L92.9 58.8L88.3 80.6H86.7001L92.4 53.3L102.1 77.4L111.9 53.3L117.5 80.6H115.9L111.4 58.8Z" fill="#F8F8F9"/>
<path d="M144.6 81.5L122.4 57.9V80.6H120.7V53.9L142.9 77.3V54.2H144.6V81.5Z" fill="#F8F8F9"/>
<path d="M151.9 54.2H150.2V80.6H151.9V54.2Z" fill="#F8F8F9"/>
<path d="M27.9001 23.6C27.8001 23.1 27.2 22.7 26.7 22.7H25.3V18.7H37.8V22.7H35.1L38.3 36.8H38.4001L42.9001 18.7H48.2L52.7 36.8H52.8L55.6 25.4C56.1 23.6 55.8 22.7 54.2 22.7H53.1V18.7H64.2V22.7H63.1C62.5 22.7 61.8 23.2 61.6 23.8L56.0001 45.3H48.5001L44.7 30.1H44.6L40.8 45.3H33.3L27.9001 23.6Z" fill="#FBFBFB"/>
<path d="M62.9 32.2C62.9 23.3 68 18.4 76.3 18.4C78.3 18.4 79.8 18.6 80.7 18.7H85.9V27.5H81.1L80.4 23.6C79.7 23.3 78.5 23.1 77.1 23.1C73.4 23.1 70.7 25.6 70.7 31.9C70.7 38 72.5 41.2 76.4 41.2C77.7 41.2 78.5 41.1 79.2 40.9V36.2H76.9V32.3H88.1V36.2H87.3C86.8 36.2 86.2 36.9 86.2 37.3V45.3H82.5C82.5 45.3 82.2 44.5 81.4 44.5C80 45.2 78.2 45.6 75.8 45.6C67.5 45.7 62.9 40.9 62.9 32.2Z" fill="#FBFBFB"/>
<path d="M90.6 35.4V23.8C90.6 23.3 90.1001 22.7 89.5001 22.7H88.2001V18.7H100.8V22.7H97.9V35.8C97.9 39.8 99.6 41.1 102.6 41.1C105.7 41.1 107.3 39.8 107.3 35.8V22.7H104.5V18.7H115.1V22.7H113.9C113.4 22.7 112.8 23.3 112.8 23.8V35.4C112.8 42.1 109.3 45.7 101.8 45.7C94.4 45.7 90.6 42.1 90.6 35.4Z" fill="#FBFBFB"/>
<path d="M159.4 26L157.2 27.8C158.4 29.2 159 31 159 32.9C159 37.3 155.4 40.9 150.9 40.9C148.8 40.9 146.9 40.1 145.4 38.7V35.4C146.4 37.4 148.4 38.7 150.7 38.7C154 38.7 156.6 36.1 156.6 32.8C156.6 30.4 155.2 28.4 153.1 27.4H153.2C154.4 26.8 155.1 26.3 155.1 26.3L164.5 18.6C162.3 18 159.3 17.7 156.6 18.1C153 18.6 150 19.9 150 19.9C147.1 18.7 145.4 18.3 141.8 18.3C138.3 18.3 136.5 18.7 133.6 19.9C133.6 19.9 130.6 18.6 127 18.1C124.3 17.7 121.3 18 119.1 18.6L128.5 26.3C128.5 26.3 129.2 26.8 130.4 27.4C130.4 27.4 130.5 27.4 130.5 27.5C128.5 28.4 127 30.5 127 32.8C127 36 129.7 38.7 132.9 38.7C135.1 38.7 137.1 37.5 138.1 35.6V30.9V30.1V30C138.1 29 138.9 28.2 139.9 28.2C140.9 28.2 141.7 29 141.7 30V31.4V43.7L138.3 40.4L137.6 39.7C136.5 40.8 135.2 41 133.1 41C128.7 41 125 37.4 125 33C125 30.8 125.4 29.5 126.6 28.2L124.4 26.4C122.8 28.2 122.1 30.3 122.1 33.1C122.1 39.1 127 44 133.1 44C134 44 135 44 136 43.8C137.5 45.1 141.9 49 141.9 49L147.9 43.7C148.8 43.9 149.8 44.1 150.8 44.1C156.9 44.1 161.8 39.2 161.8 33.2C161.9 30.4 161.1 28 159.4 26ZM150.9 29.4C151.5 29.4 152.1 29.6 152.6 29.8C152.5 29.8 152.4 29.8 152.4 29.8C151.3 29.8 150.4 30.7 150.4 31.8C150.4 32.9 151.3 33.8 152.4 33.8C153.4 33.8 154.3 33 154.4 32C154.5 32.3 154.5 32.6 154.5 32.9C154.5 34.8 152.9 36.4 151 36.4C149.1 36.4 147.5 34.8 147.5 32.9C147.3 31 148.9 29.4 150.9 29.4ZM133.2 36.4C131.2 36.4 129.7 34.8 129.7 32.9C129.7 31 131.3 29.4 133.2 29.4C133.8 29.4 134.4 29.6 134.9 29.8C134.8 29.8 134.7 29.8 134.7 29.8C133.6 29.8 132.7 30.7 132.7 31.8C132.7 32.9 133.6 33.8 134.7 33.8C135.7 33.8 136.6 33 136.7 32C136.8 32.3 136.8 32.6 136.8 32.9C136.8 34.8 135.2 36.4 133.2 36.4Z" fill="#FBFBFB"/>
<path d="M159.4 44.1C159.4 43.3 160.1 42.6 160.9 42.6C161.7 42.6 162.4 43.3 162.4 44.1C162.4 44.9 161.7 45.6 160.9 45.6C160 45.7 159.4 45 159.4 44.1ZM159.7 44.1C159.7 44.8 160.2 45.3 160.9 45.3C161.6 45.3 162.1 44.8 162.1 44.1C162.1 43.4 161.6 42.9 160.9 42.9C160.2 42.9 159.7 43.5 159.7 44.1ZM161.6 44.9H161.2L160.8 44.3H160.5V44.9H160.3V43.3H161.1C161.5 43.3 161.7 43.4 161.7 43.8C161.7 44.1 161.6 44.2 161.3 44.3L161.6 44.9ZM161 44C161.2 44 161.3 44 161.3 43.8C161.3 43.6 161.1 43.6 160.9 43.6H160.5V44H161Z" fill="#FBFBFB"/>
</svg>
